solid CATIA STL
  facet normal -9.238799e-01  -0.000000e+00 -3.826826e-01
    outer loop
      vertex -1.347723e+01  1.000000e+00  5.000000e-01
      vertex -1.347723e+01  3.000000e+00  5.000000e-01
      vertex -1.333078e+01  1.000000e+00  1.464466e-01
    endloop
  endfacet
  facet normal -9.238799e-01  0.000000e+00 -3.826826e-01
    outer loop
      vertex -1.333078e+01  1.000000e+00  1.464466e-01
      vertex -1.347723e+01  3.000000e+00  5.000000e-01
      vertex -1.333078e+01  3.000000e+00  1.464466e-01
    endloop
  endfacet
  facet normal -3.826831e-01  -0.000000e+00 -9.238796e-01
    outer loop
      vertex -1.333078e+01  1.000000e+00  1.464466e-01
      vertex -1.333078e+01  3.000000e+00  1.464466e-01
      vertex -1.297723e+01  1.000000e+00  0.000000e+00
    endloop
  endfacet
  facet normal -3.826831e-01  0.000000e+00 -9.238796e-01
    outer loop
      vertex -1.297723e+01  1.000000e+00  0.000000e+00
      vertex -1.333078e+01  3.000000e+00  1.464466e-01
      vertex -1.297723e+01  3.000000e+00  0.000000e+00
    endloop
  endfacet
  facet normal  -0.000000e+00  -0.000000e+00 -1.000000e+00
    outer loop
      vertex  5.099020e+00  3.000000e+00  0.000000e+00
      vertex  1.297723e+01  3.000000e+00  0.000000e+00
      vertex  1.297723e+01  1.000000e+00  0.000000e+00
    endloop
  endfacet
  facet normal  0.000000e+00  0.000000e+00 -1.000000e+00
    outer loop
      vertex  5.099020e+00  3.000000e+00  0.000000e+00
      vertex  1.297723e+01  1.000000e+00  0.000000e+00
      vertex -8.931620e-17  3.000000e+00  0.000000e+00
    endloop
  endfacet
  facet normal  0.000000e+00  0.000000e+00 -1.000000e+00
    outer loop
      vertex  5.099020e+00  3.000000e+00  0.000000e+00
      vertex -8.931620e-17  3.000000e+00  0.000000e+00
      vertex  3.399346e+00  3.666667e+00  0.000000e+00
    endloop
  endfacet
  facet normal  0.000000e+00  0.000000e+00 -1.000000e+00
    outer loop
      vertex -1.297723e+01  1.000000e+00  0.000000e+00
      vertex -1.297723e+01  3.000000e+00  0.000000e+00
      vertex -5.099020e+00  3.000000e+00  0.000000e+00
    endloop
  endfacet
  facet normal  0.000000e+00  -0.000000e+00 -1.000000e+00
    outer loop
      vertex -1.297723e+01  1.000000e+00  0.000000e+00
      vertex -5.099020e+00  3.000000e+00  0.000000e+00
      vertex -8.931620e-17  3.000000e+00  0.000000e+00
    endloop
  endfacet
  facet normal  0.000000e+00  0.000000e+00 -1.000000e+00
    outer loop
      vertex -1.297723e+01  1.000000e+00  0.000000e+00
      vertex -8.931620e-17  3.000000e+00  0.000000e+00
      vertex -1.603567e+00  2.535463e+00  0.000000e+00
    endloop
  endfacet
  facet normal  0.000000e+00  0.000000e+00 -1.000000e+00
    outer loop
      vertex -1.297723e+01  1.000000e+00  0.000000e+00
      vertex -1.603567e+00  2.535463e+00  0.000000e+00
      vertex -2.710524e+00  1.285714e+00  0.000000e+00
    endloop
  endfacet
  facet normal  0.000000e+00  0.000000e+00 -1.000000e+00
    outer loop
      vertex -1.297723e+01  1.000000e+00  0.000000e+00
      vertex -2.710524e+00  1.285714e+00  0.000000e+00
      vertex -2.895016e+00  1.077423e+00  0.000000e+00
    endloop
  endfacet
  facet normal  0.000000e+00  0.000000e+00 -1.000000e+00
    outer loop
      vertex -1.297723e+01  1.000000e+00  0.000000e+00
      vertex -2.895016e+00  1.077423e+00  0.000000e+00
      vertex -3.162278e+00  1.000000e+00  0.000000e+00
    endloop
  endfacet
  facet normal  0.000000e+00  0.000000e+00 -1.000000e+00
    outer loop
      vertex  1.297723e+01  1.000000e+00  0.000000e+00
      vertex  3.162278e+00  1.000000e+00  0.000000e+00
      vertex  2.895016e+00  1.077423e+00  0.000000e+00
    endloop
  endfacet
  facet normal  0.000000e+00  0.000000e+00 -1.000000e+00
    outer loop
      vertex  1.297723e+01  1.000000e+00  0.000000e+00
      vertex  2.895016e+00  1.077423e+00  0.000000e+00
      vertex  2.710524e+00  1.285714e+00  0.000000e+00
    endloop
  endfacet
  facet normal  0.000000e+00  0.000000e+00 -1.000000e+00
    outer loop
      vertex  1.297723e+01  1.000000e+00  0.000000e+00
      vertex  2.710524e+00  1.285714e+00  0.000000e+00
      vertex  1.603567e+00  2.535463e+00  0.000000e+00
    endloop
  endfacet
  facet normal  0.000000e+00  0.000000e+00 -1.000000e+00
    outer loop
      vertex  1.297723e+01  1.000000e+00  0.000000e+00
      vertex  1.603567e+00  2.535463e+00  0.000000e+00
      vertex -8.931620e-17  3.000000e+00  0.000000e+00
    endloop
  endfacet
  facet normal  0.000000e+00  0.000000e+00 -1.000000e+00
    outer loop
      vertex  1.233118e+00  4.845557e+00  0.000000e+00
      vertex  3.399346e+00  3.666667e+00  0.000000e+00
      vertex -1.233118e+00  4.845557e+00  0.000000e+00
    endloop
  endfacet
  facet normal  0.000000e+00  -0.000000e+00 -1.000000e+00
    outer loop
      vertex -1.233118e+00  4.845557e+00  0.000000e+00
      vertex  3.399346e+00  3.666667e+00  0.000000e+00
      vertex -3.399346e+00  3.666667e+00  0.000000e+00
    endloop
  endfacet
  facet normal  0.000000e+00  0.000000e+00 -1.000000e+00
    outer loop
      vertex  3.399346e+00  3.666667e+00  0.000000e+00
      vertex -8.931620e-17  3.000000e+00  0.000000e+00
      vertex -3.399346e+00  3.666667e+00  0.000000e+00
    endloop
  endfacet
  facet normal  0.000000e+00  -0.000000e+00 -1.000000e+00
    outer loop
      vertex -3.399346e+00  3.666667e+00  0.000000e+00
      vertex -8.931620e-17  3.000000e+00  0.000000e+00
      vertex -5.099020e+00  3.000000e+00  0.000000e+00
    endloop
  endfacet
  facet normal -1.000000e+00  0.000000e+00  0.000000e+00
    outer loop
      vertex -1.347723e+01  3.000000e+00  5.000000e-01
      vertex -1.347723e+01  1.000000e+00  5.000000e-01
      vertex -1.347723e+01  3.000000e+00  9.500000e+00
    endloop
  endfacet
  facet normal -1.000000e+00  -0.000000e+00  0.000000e+00
    outer loop
      vertex -1.347723e+01  3.000000e+00  9.500000e+00
      vertex -1.347723e+01  1.000000e+00  5.000000e-01
      vertex -1.347723e+01  1.000000e+00  9.500000e+00
    endloop
  endfacet
  facet normal  0.000000e+00  1.000000e+00  -0.000000e+00
    outer loop
      vertex -5.099020e+00  3.500000e+00  9.500000e+00
      vertex -5.099020e+00  3.500000e+00  5.000000e-01
      vertex -7.451921e+00  3.500000e+00  6.025305e+00
    endloop
  endfacet
  facet normal  0.000000e+00  1.000000e+00  -0.000000e+00
    outer loop
      vertex -5.099020e+00  3.500000e+00  9.500000e+00
      vertex -7.451921e+00  3.500000e+00  6.025305e+00
      vertex -8.477225e+00  3.500000e+00  6.450000e+00
    endloop
  endfacet
  facet normal  0.000000e+00  1.000000e+00  -0.000000e+00
    outer loop
      vertex -5.099020e+00  3.500000e+00  9.500000e+00
      vertex -8.477225e+00  3.500000e+00  6.450000e+00
      vertex -9.502530e+00  3.500000e+00  6.025305e+00
    endloop
  endfacet
  facet normal  0.000000e+00  1.000000e+00  -0.000000e+00
    outer loop
      vertex -5.099020e+00  3.500000e+00  9.500000e+00
      vertex -9.502530e+00  3.500000e+00  6.025305e+00
      vertex -1.297723e+01  3.500000e+00  9.500000e+00
    endloop
  endfacet
  facet normal  0.000000e+00  1.000000e+00  0.000000e+00
    outer loop
      vertex -1.297723e+01  3.500000e+00  5.000000e-01
      vertex -1.297723e+01  3.500000e+00  9.500000e+00
      vertex -9.502530e+00  3.500000e+00  6.025305e+00
    endloop
  endfacet
  facet normal  0.000000e+00  1.000000e+00  0.000000e+00
    outer loop
      vertex -1.297723e+01  3.500000e+00  5.000000e-01
      vertex -9.502530e+00  3.500000e+00  6.025305e+00
      vertex -9.927225e+00  3.500000e+00  5.000000e+00
    endloop
  endfacet
  facet normal  0.000000e+00  1.000000e+00  0.000000e+00
    outer loop
      vertex -1.297723e+01  3.500000e+00  5.000000e-01
      vertex -9.927225e+00  3.500000e+00  5.000000e+00
      vertex -9.502530e+00  3.500000e+00  3.974695e+00
    endloop
  endfacet
  facet normal  0.000000e+00  1.000000e+00  0.000000e+00
    outer loop
      vertex -1.297723e+01  3.500000e+00  5.000000e-01
      vertex -9.502530e+00  3.500000e+00  3.974695e+00
      vertex -8.477225e+00  3.500000e+00  3.550000e+00
    endloop
  endfacet
  facet normal  0.000000e+00  1.000000e+00  0.000000e+00
    outer loop
      vertex -1.297723e+01  3.500000e+00  5.000000e-01
      vertex -8.477225e+00  3.500000e+00  3.550000e+00
      vertex -5.099020e+00  3.500000e+00  5.000000e-01
    endloop
  endfacet
  facet normal  -0.000000e+00  1.000000e+00  0.000000e+00
    outer loop
      vertex -5.099020e+00  3.500000e+00  5.000000e-01
      vertex -8.477225e+00  3.500000e+00  3.550000e+00
      vertex -7.451921e+00  3.500000e+00  3.974695e+00
    endloop
  endfacet
  facet normal  -0.000000e+00  1.000000e+00  0.000000e+00
    outer loop
      vertex -5.099020e+00  3.500000e+00  5.000000e-01
      vertex -7.451921e+00  3.500000e+00  3.974695e+00
      vertex -7.027225e+00  3.500000e+00  5.000000e+00
    endloop
  endfacet
  facet normal  -0.000000e+00  1.000000e+00  -0.000000e+00
    outer loop
      vertex -5.099020e+00  3.500000e+00  5.000000e-01
      vertex -7.027225e+00  3.500000e+00  5.000000e+00
      vertex -7.451921e+00  3.500000e+00  6.025305e+00
    endloop
  endfacet
  facet normal  0.000000e+00 -1.000000e+00  -0.000000e+00
    outer loop
      vertex -3.162278e+00  5.000000e-01  5.000000e-01
      vertex -3.162278e+00  5.000000e-01  9.500000e+00
      vertex -7.451921e+00  5.000000e-01  6.025305e+00
    endloop
  endfacet
  facet normal  0.000000e+00 -1.000000e+00  0.000000e+00
    outer loop
      vertex -3.162278e+00  5.000000e-01  5.000000e-01
      vertex -7.451921e+00  5.000000e-01  6.025305e+00
      vertex -7.027225e+00  5.000000e-01  5.000000e+00
    endloop
  endfacet
  facet normal  0.000000e+00 -1.000000e+00  -0.000000e+00
    outer loop
      vertex -3.162278e+00  5.000000e-01  5.000000e-01
      vertex -7.027225e+00  5.000000e-01  5.000000e+00
      vertex -7.451921e+00  5.000000e-01  3.974695e+00
    endloop
  endfacet
  facet normal  0.000000e+00 -1.000000e+00  -0.000000e+00
    outer loop
      vertex -3.162278e+00  5.000000e-01  5.000000e-01
      vertex -7.451921e+00  5.000000e-01  3.974695e+00
      vertex -1.297723e+01  5.000000e-01  5.000000e-01
    endloop
  endfacet
  facet normal  0.000000e+00 -1.000000e+00  0.000000e+00
    outer loop
      vertex -1.297723e+01  5.000000e-01  5.000000e-01
      vertex -7.451921e+00  5.000000e-01  3.974695e+00
      vertex -8.477225e+00  5.000000e-01  3.550000e+00
    endloop
  endfacet
  facet normal  -0.000000e+00 -1.000000e+00  0.000000e+00
    outer loop
      vertex -1.297723e+01  5.000000e-01  5.000000e-01
      vertex -8.477225e+00  5.000000e-01  3.550000e+00
      vertex -9.502530e+00  5.000000e-01  3.974695e+00
    endloop
  endfacet
  facet normal  -0.000000e+00 -1.000000e+00  0.000000e+00
    outer loop
      vertex -1.297723e+01  5.000000e-01  5.000000e-01
      vertex -9.502530e+00  5.000000e-01  3.974695e+00
      vertex -9.927225e+00  5.000000e-01  5.000000e+00
    endloop
  endfacet
  facet normal  -0.000000e+00 -1.000000e+00  0.000000e+00
    outer loop
      vertex -1.297723e+01  5.000000e-01  5.000000e-01
      vertex -9.927225e+00  5.000000e-01  5.000000e+00
      vertex -1.297723e+01  5.000000e-01  9.500000e+00
    endloop
  endfacet
  facet normal  0.000000e+00 -1.000000e+00  0.000000e+00
    outer loop
      vertex -1.297723e+01  5.000000e-01  9.500000e+00
      vertex -9.927225e+00  5.000000e-01  5.000000e+00
      vertex -9.502530e+00  5.000000e-01  6.025305e+00
    endloop
  endfacet
  facet normal  0.000000e+00 -1.000000e+00  0.000000e+00
    outer loop
      vertex -1.297723e+01  5.000000e-01  9.500000e+00
      vertex -9.502530e+00  5.000000e-01  6.025305e+00
      vertex -8.477225e+00  5.000000e-01  6.450000e+00
    endloop
  endfacet
  facet normal  0.000000e+00 -1.000000e+00  0.000000e+00
    outer loop
      vertex -1.297723e+01  5.000000e-01  9.500000e+00
      vertex -8.477225e+00  5.000000e-01  6.450000e+00
      vertex -7.451921e+00  5.000000e-01  6.025305e+00
    endloop
  endfacet
  facet normal  0.000000e+00 -1.000000e+00  0.000000e+00
    outer loop
      vertex -1.297723e+01  5.000000e-01  9.500000e+00
      vertex -7.451921e+00  5.000000e-01  6.025305e+00
      vertex -3.162278e+00  5.000000e-01  9.500000e+00
    endloop
  endfacet
  facet normal  3.826831e-01  0.000000e+00 -9.238796e-01
    outer loop
      vertex  1.297723e+01  1.000000e+00  0.000000e+00
      vertex  1.297723e+01  3.000000e+00  0.000000e+00
      vertex  1.333078e+01  1.000000e+00  1.464466e-01
    endloop
  endfacet
  facet normal  3.826831e-01  0.000000e+00 -9.238796e-01
    outer loop
      vertex  1.333078e+01  1.000000e+00  1.464466e-01
      vertex  1.297723e+01  3.000000e+00  0.000000e+00
      vertex  1.333078e+01  3.000000e+00  1.464466e-01
    endloop
  endfacet
  facet normal  9.238799e-01  0.000000e+00 -3.826826e-01
    outer loop
      vertex  1.333078e+01  1.000000e+00  1.464466e-01
      vertex  1.333078e+01  3.000000e+00  1.464466e-01
      vertex  1.347723e+01  1.000000e+00  5.000000e-01
    endloop
  endfacet
  facet normal  9.238799e-01  0.000000e+00 -3.826826e-01
    outer loop
      vertex  1.347723e+01  1.000000e+00  5.000000e-01
      vertex  1.333078e+01  3.000000e+00  1.464466e-01
      vertex  1.347723e+01  3.000000e+00  5.000000e-01
    endloop
  endfacet
  facet normal  1.000000e+00  0.000000e+00  0.000000e+00
    outer loop
      vertex  1.347723e+01  3.000000e+00  5.000000e-01
      vertex  1.347723e+01  3.000000e+00  9.500000e+00
      vertex  1.347723e+01  1.000000e+00  5.000000e-01
    endloop
  endfacet
  facet normal  1.000000e+00  0.000000e+00  0.000000e+00
    outer loop
      vertex  1.347723e+01  1.000000e+00  5.000000e-01
      vertex  1.347723e+01  3.000000e+00  9.500000e+00
      vertex  1.347723e+01  1.000000e+00  9.500000e+00
    endloop
  endfacet
  facet normal  0.000000e+00  1.000000e+00  -0.000000e+00
    outer loop
      vertex  1.297723e+01  3.500000e+00  9.500000e+00
      vertex  1.297723e+01  3.500000e+00  5.000000e-01
      vertex  9.502530e+00  3.500000e+00  6.025305e+00
    endloop
  endfacet
  facet normal  0.000000e+00  1.000000e+00  -0.000000e+00
    outer loop
      vertex  1.297723e+01  3.500000e+00  9.500000e+00
      vertex  9.502530e+00  3.500000e+00  6.025305e+00
      vertex  8.477225e+00  3.500000e+00  6.450000e+00
    endloop
  endfacet
  facet normal  0.000000e+00  1.000000e+00  -0.000000e+00
    outer loop
      vertex  1.297723e+01  3.500000e+00  9.500000e+00
      vertex  8.477225e+00  3.500000e+00  6.450000e+00
      vertex  7.451921e+00  3.500000e+00  6.025305e+00
    endloop
  endfacet
  facet normal  0.000000e+00  1.000000e+00  -0.000000e+00
    outer loop
      vertex  1.297723e+01  3.500000e+00  9.500000e+00
      vertex  7.451921e+00  3.500000e+00  6.025305e+00
      vertex  5.099020e+00  3.500000e+00  9.500000e+00
    endloop
  endfacet
  facet normal  0.000000e+00  1.000000e+00  0.000000e+00
    outer loop
      vertex  5.099020e+00  3.500000e+00  5.000000e-01
      vertex  5.099020e+00  3.500000e+00  9.500000e+00
      vertex  7.451921e+00  3.500000e+00  6.025305e+00
    endloop
  endfacet
  facet normal  0.000000e+00  1.000000e+00  0.000000e+00
    outer loop
      vertex  5.099020e+00  3.500000e+00  5.000000e-01
      vertex  7.451921e+00  3.500000e+00  6.025305e+00
      vertex  7.027225e+00  3.500000e+00  5.000000e+00
    endloop
  endfacet
  facet normal  0.000000e+00  1.000000e+00  0.000000e+00
    outer loop
      vertex  5.099020e+00  3.500000e+00  5.000000e-01
      vertex  7.027225e+00  3.500000e+00  5.000000e+00
      vertex  7.451921e+00  3.500000e+00  3.974695e+00
    endloop
  endfacet
  facet normal  0.000000e+00  1.000000e+00  0.000000e+00
    outer loop
      vertex  5.099020e+00  3.500000e+00  5.000000e-01
      vertex  7.451921e+00  3.500000e+00  3.974695e+00
      vertex  8.477225e+00  3.500000e+00  3.550000e+00
    endloop
  endfacet
  facet normal  0.000000e+00  1.000000e+00  0.000000e+00
    outer loop
      vertex  5.099020e+00  3.500000e+00  5.000000e-01
      vertex  8.477225e+00  3.500000e+00  3.550000e+00
      vertex  1.297723e+01  3.500000e+00  5.000000e-01
    endloop
  endfacet
  facet normal  -0.000000e+00  1.000000e+00  0.000000e+00
    outer loop
      vertex  1.297723e+01  3.500000e+00  5.000000e-01
      vertex  8.477225e+00  3.500000e+00  3.550000e+00
      vertex  9.502530e+00  3.500000e+00  3.974695e+00
    endloop
  endfacet
  facet normal  -0.000000e+00  1.000000e+00  0.000000e+00
    outer loop
      vertex  1.297723e+01  3.500000e+00  5.000000e-01
      vertex  9.502530e+00  3.500000e+00  3.974695e+00
      vertex  9.927225e+00  3.500000e+00  5.000000e+00
    endloop
  endfacet
  facet normal  -0.000000e+00  1.000000e+00  -0.000000e+00
    outer loop
      vertex  1.297723e+01  3.500000e+00  5.000000e-01
      vertex  9.927225e+00  3.500000e+00  5.000000e+00
      vertex  9.502530e+00  3.500000e+00  6.025305e+00
    endloop
  endfacet
  facet normal  0.000000e+00 -1.000000e+00  -0.000000e+00
    outer loop
      vertex  1.297723e+01  5.000000e-01  5.000000e-01
      vertex  1.297723e+01  5.000000e-01  9.500000e+00
      vertex  9.502530e+00  5.000000e-01  6.025305e+00
    endloop
  endfacet
  facet normal  0.000000e+00 -1.000000e+00  0.000000e+00
    outer loop
      vertex  1.297723e+01  5.000000e-01  5.000000e-01
      vertex  9.502530e+00  5.000000e-01  6.025305e+00
      vertex  9.927225e+00  5.000000e-01  5.000000e+00
    endloop
  endfacet
  facet normal  0.000000e+00 -1.000000e+00  -0.000000e+00
    outer loop
      vertex  1.297723e+01  5.000000e-01  5.000000e-01
      vertex  9.927225e+00  5.000000e-01  5.000000e+00
      vertex  9.502530e+00  5.000000e-01  3.974695e+00
    endloop
  endfacet
  facet normal  0.000000e+00 -1.000000e+00  -0.000000e+00
    outer loop
      vertex  1.297723e+01  5.000000e-01  5.000000e-01
      vertex  9.502530e+00  5.000000e-01  3.974695e+00
      vertex  3.162278e+00  5.000000e-01  5.000000e-01
    endloop
  endfacet
  facet normal  0.000000e+00 -9.999999e-01  0.000000e+00
    outer loop
      vertex  3.162278e+00  5.000000e-01  5.000000e-01
      vertex  9.502530e+00  5.000000e-01  3.974695e+00
      vertex  8.477225e+00  5.000000e-01  3.550000e+00
    endloop
  endfacet
  facet normal  -0.000000e+00 -1.000000e+00  0.000000e+00
    outer loop
      vertex  3.162278e+00  5.000000e-01  5.000000e-01
      vertex  8.477225e+00  5.000000e-01  3.550000e+00
      vertex  7.451921e+00  5.000000e-01  3.974695e+00
    endloop
  endfacet
  facet normal  -0.000000e+00 -1.000000e+00  0.000000e+00
    outer loop
      vertex  3.162278e+00  5.000000e-01  5.000000e-01
      vertex  7.451921e+00  5.000000e-01  3.974695e+00
      vertex  7.027225e+00  5.000000e-01  5.000000e+00
    endloop
  endfacet
  facet normal  -0.000000e+00 -1.000000e+00  0.000000e+00
    outer loop
      vertex  3.162278e+00  5.000000e-01  5.000000e-01
      vertex  7.027225e+00  5.000000e-01  5.000000e+00
      vertex  3.162278e+00  5.000000e-01  9.500000e+00
    endloop
  endfacet
  facet normal  0.000000e+00 -1.000000e+00  0.000000e+00
    outer loop
      vertex  3.162278e+00  5.000000e-01  9.500000e+00
      vertex  7.027225e+00  5.000000e-01  5.000000e+00
      vertex  7.451921e+00  5.000000e-01  6.025305e+00
    endloop
  endfacet
  facet normal  0.000000e+00 -1.000000e+00  0.000000e+00
    outer loop
      vertex  3.162278e+00  5.000000e-01  9.500000e+00
      vertex  7.451921e+00  5.000000e-01  6.025305e+00
      vertex  8.477225e+00  5.000000e-01  6.450000e+00
    endloop
  endfacet
  facet normal  0.000000e+00 -1.000000e+00  0.000000e+00
    outer loop
      vertex  3.162278e+00  5.000000e-01  9.500000e+00
      vertex  8.477225e+00  5.000000e-01  6.450000e+00
      vertex  9.502530e+00  5.000000e-01  6.025305e+00
    endloop
  endfacet
  facet normal  0.000000e+00 -1.000000e+00  0.000000e+00
    outer loop
      vertex  3.162278e+00  5.000000e-01  9.500000e+00
      vertex  9.502530e+00  5.000000e-01  6.025305e+00
      vertex  1.297723e+01  5.000000e-01  9.500000e+00
    endloop
  endfacet
  facet normal  0.000000e+00  3.826827e-01  9.238799e-01
    outer loop
      vertex -1.297723e+01  3.000000e+00  1.000000e+01
      vertex -5.099020e+00  3.000000e+00  1.000000e+01
      vertex -1.297723e+01  3.353553e+00  9.853554e+00
    endloop
  endfacet
  facet normal  -0.000000e+00  3.826827e-01  9.238799e-01
    outer loop
      vertex -1.297723e+01  3.353553e+00  9.853554e+00
      vertex -5.099020e+00  3.000000e+00  1.000000e+01
      vertex -5.099020e+00  3.353553e+00  9.853554e+00
    endloop
  endfacet
  facet normal  0.000000e+00  9.238796e-01  3.826833e-01
    outer loop
      vertex -1.297723e+01  3.353553e+00  9.853554e+00
      vertex -5.099020e+00  3.353553e+00  9.853554e+00
      vertex -1.297723e+01  3.500000e+00  9.500000e+00
    endloop
  endfacet
  facet normal  -0.000000e+00  9.238796e-01  3.826833e-01
    outer loop
      vertex -1.297723e+01  3.500000e+00  9.500000e+00
      vertex -5.099020e+00  3.353553e+00  9.853554e+00
      vertex -5.099020e+00  3.500000e+00  9.500000e+00
    endloop
  endfacet
  facet normal  0.000000e+00  3.826827e-01  9.238799e-01
    outer loop
      vertex  5.099020e+00  3.000000e+00  1.000000e+01
      vertex  1.297723e+01  3.000000e+00  1.000000e+01
      vertex  5.099020e+00  3.353553e+00  9.853554e+00
    endloop
  endfacet
  facet normal  -0.000000e+00  3.826827e-01  9.238799e-01
    outer loop
      vertex  5.099020e+00  3.353553e+00  9.853554e+00
      vertex  1.297723e+01  3.000000e+00  1.000000e+01
      vertex  1.297723e+01  3.353553e+00  9.853554e+00
    endloop
  endfacet
  facet normal  0.000000e+00  9.238796e-01  3.826833e-01
    outer loop
      vertex  5.099020e+00  3.353553e+00  9.853554e+00
      vertex  1.297723e+01  3.353553e+00  9.853554e+00
      vertex  5.099020e+00  3.500000e+00  9.500000e+00
    endloop
  endfacet
  facet normal  -0.000000e+00  9.238796e-01  3.826833e-01
    outer loop
      vertex  5.099020e+00  3.500000e+00  9.500000e+00
      vertex  1.297723e+01  3.353553e+00  9.853554e+00
      vertex  1.297723e+01  3.500000e+00  9.500000e+00
    endloop
  endfacet
  facet normal  0.000000e+00  0.000000e+00  1.000000e+00
    outer loop
      vertex  5.099020e+00  3.000000e+00  1.000000e+01
      vertex  3.399346e+00  3.666667e+00  1.000000e+01
      vertex -1.421584e-15  3.000000e+00  1.000000e+01
    endloop
  endfacet
  facet normal  -0.000000e+00  0.000000e+00  1.000000e+00
    outer loop
      vertex  5.099020e+00  3.000000e+00  1.000000e+01
      vertex -1.421584e-15  3.000000e+00  1.000000e+01
      vertex  1.603567e+00  2.535463e+00  1.000000e+01
    endloop
  endfacet
  facet normal  -0.000000e+00  0.000000e+00  1.000000e+00
    outer loop
      vertex  5.099020e+00  3.000000e+00  1.000000e+01
      vertex  1.603567e+00  2.535463e+00  1.000000e+01
      vertex  1.297723e+01  1.000000e+00  1.000000e+01
    endloop
  endfacet
  facet normal  0.000000e+00  -0.000000e+00  1.000000e+00
    outer loop
      vertex  5.099020e+00  3.000000e+00  1.000000e+01
      vertex  1.297723e+01  1.000000e+00  1.000000e+01
      vertex  1.297723e+01  3.000000e+00  1.000000e+01
    endloop
  endfacet
  facet normal  0.000000e+00  -0.000000e+00  1.000000e+00
    outer loop
      vertex -1.297723e+01  1.000000e+00  1.000000e+01
      vertex -3.162278e+00  1.000000e+00  1.000000e+01
      vertex -2.895016e+00  1.077423e+00  1.000000e+01
    endloop
  endfacet
  facet normal  0.000000e+00  -0.000000e+00  1.000000e+00
    outer loop
      vertex -1.297723e+01  1.000000e+00  1.000000e+01
      vertex -2.895016e+00  1.077423e+00  1.000000e+01
      vertex -2.710524e+00  1.285714e+00  1.000000e+01
    endloop
  endfacet
  facet normal  0.000000e+00  -0.000000e+00  1.000000e+00
    outer loop
      vertex -1.297723e+01  1.000000e+00  1.000000e+01
      vertex -2.710524e+00  1.285714e+00  1.000000e+01
      vertex -1.603567e+00  2.535463e+00  1.000000e+01
    endloop
  endfacet
  facet normal  0.000000e+00  -0.000000e+00  1.000000e+00
    outer loop
      vertex -1.297723e+01  1.000000e+00  1.000000e+01
      vertex -1.603567e+00  2.535463e+00  1.000000e+01
      vertex -1.421584e-15  3.000000e+00  1.000000e+01
    endloop
  endfacet
  facet normal  0.000000e+00  0.000000e+00  1.000000e+00
    outer loop
      vertex -1.297723e+01  1.000000e+00  1.000000e+01
      vertex -1.421584e-15  3.000000e+00  1.000000e+01
      vertex -5.099020e+00  3.000000e+00  1.000000e+01
    endloop
  endfacet
  facet normal  0.000000e+00  0.000000e+00  1.000000e+00
    outer loop
      vertex -1.297723e+01  1.000000e+00  1.000000e+01
      vertex -5.099020e+00  3.000000e+00  1.000000e+01
      vertex -1.297723e+01  3.000000e+00  1.000000e+01
    endloop
  endfacet
  facet normal  0.000000e+00  0.000000e+00  1.000000e+00
    outer loop
      vertex  1.297723e+01  1.000000e+00  1.000000e+01
      vertex  1.603567e+00  2.535463e+00  1.000000e+01
      vertex  2.710524e+00  1.285714e+00  1.000000e+01
    endloop
  endfacet
  facet normal  0.000000e+00  0.000000e+00  1.000000e+00
    outer loop
      vertex  1.297723e+01  1.000000e+00  1.000000e+01
      vertex  2.710524e+00  1.285714e+00  1.000000e+01
      vertex  2.895016e+00  1.077423e+00  1.000000e+01
    endloop
  endfacet
  facet normal  0.000000e+00  0.000000e+00  1.000000e+00
    outer loop
      vertex  1.297723e+01  1.000000e+00  1.000000e+01
      vertex  2.895016e+00  1.077423e+00  1.000000e+01
      vertex  3.162278e+00  1.000000e+00  1.000000e+01
    endloop
  endfacet
  facet normal  -0.000000e+00  0.000000e+00  1.000000e+00
    outer loop
      vertex  1.233118e+00  4.845557e+00  1.000000e+01
      vertex -1.233118e+00  4.845557e+00  1.000000e+01
      vertex  3.399346e+00  3.666667e+00  1.000000e+01
    endloop
  endfacet
  facet normal  0.000000e+00  0.000000e+00  1.000000e+00
    outer loop
      vertex  3.399346e+00  3.666667e+00  1.000000e+01
      vertex -1.233118e+00  4.845557e+00  1.000000e+01
      vertex -3.399346e+00  3.666667e+00  1.000000e+01
    endloop
  endfacet
  facet normal  -0.000000e+00  0.000000e+00  1.000000e+00
    outer loop
      vertex  3.399346e+00  3.666667e+00  1.000000e+01
      vertex -3.399346e+00  3.666667e+00  1.000000e+01
      vertex -1.421584e-15  3.000000e+00  1.000000e+01
    endloop
  endfacet
  facet normal  0.000000e+00  0.000000e+00  1.000000e+00
    outer loop
      vertex -1.421584e-15  3.000000e+00  1.000000e+01
      vertex -3.399346e+00  3.666667e+00  1.000000e+01
      vertex -5.099020e+00  3.000000e+00  1.000000e+01
    endloop
  endfacet
  facet normal -3.651483e-01  9.309493e-01  0.000000e+00
    outer loop
      vertex -3.739281e+00  4.033333e+00  5.000000e-01
      vertex -5.099020e+00  3.500000e+00  5.000000e-01
      vertex -3.739281e+00  4.033333e+00  9.500000e+00
    endloop
  endfacet
  facet normal -3.651483e-01  9.309493e-01  0.000000e+00
    outer loop
      vertex -3.739281e+00  4.033333e+00  9.500000e+00
      vertex -5.099020e+00  3.500000e+00  5.000000e-01
      vertex -5.099020e+00  3.500000e+00  9.500000e+00
    endloop
  endfacet
  facet normal  3.651483e-01  9.309493e-01  0.000000e+00
    outer loop
      vertex  5.099020e+00  3.500000e+00  5.000000e-01
      vertex  3.739281e+00  4.033333e+00  5.000000e-01
      vertex  5.099020e+00  3.500000e+00  9.500000e+00
    endloop
  endfacet
  facet normal  3.651483e-01  9.309493e-01  0.000000e+00
    outer loop
      vertex  5.099020e+00  3.500000e+00  9.500000e+00
      vertex  3.739281e+00  4.033333e+00  5.000000e-01
      vertex  3.739281e+00  4.033333e+00  9.500000e+00
    endloop
  endfacet
  facet normal -4.780117e-01  8.783535e-01  0.000000e+00
    outer loop
      vertex -3.739281e+00  4.033333e+00  5.000000e-01
      vertex -3.739281e+00  4.033333e+00  9.500000e+00
      vertex -1.356430e+00  5.330112e+00  5.000000e-01
    endloop
  endfacet
  facet normal -4.780117e-01  8.783535e-01  0.000000e+00
    outer loop
      vertex -1.356430e+00  5.330112e+00  5.000000e-01
      vertex -3.739281e+00  4.033333e+00  9.500000e+00
      vertex -1.356430e+00  5.330112e+00  9.500000e+00
    endloop
  endfacet
  facet normal  0.000000e+00  1.000000e+00  0.000000e+00
    outer loop
      vertex -1.356430e+00  5.330112e+00  5.000000e-01
      vertex -1.356430e+00  5.330112e+00  9.500000e+00
      vertex  1.356430e+00  5.330112e+00  5.000000e-01
    endloop
  endfacet
  facet normal  0.000000e+00  1.000000e+00  -0.000000e+00
    outer loop
      vertex  1.356430e+00  5.330112e+00  5.000000e-01
      vertex -1.356430e+00  5.330112e+00  9.500000e+00
      vertex  1.356430e+00  5.330112e+00  9.500000e+00
    endloop
  endfacet
  facet normal  4.780117e-01  8.783535e-01  0.000000e+00
    outer loop
      vertex  1.356430e+00  5.330112e+00  5.000000e-01
      vertex  1.356430e+00  5.330112e+00  9.500000e+00
      vertex  3.739281e+00  4.033333e+00  5.000000e-01
    endloop
  endfacet
  facet normal  4.780117e-01  8.783535e-01  -0.000000e+00
    outer loop
      vertex  3.739281e+00  4.033333e+00  5.000000e-01
      vertex  1.356430e+00  5.330112e+00  9.500000e+00
      vertex  3.739281e+00  4.033333e+00  9.500000e+00
    endloop
  endfacet
  facet normal  0.000000e+00 -9.238797e-01  3.826830e-01
    outer loop
      vertex  3.162278e+00  5.000000e-01  9.500000e+00
      vertex  1.297723e+01  5.000000e-01  9.500000e+00
      vertex  3.162278e+00  6.464466e-01  9.853554e+00
    endloop
  endfacet
  facet normal  0.000000e+00 -9.238797e-01  3.826830e-01
    outer loop
      vertex  3.162278e+00  6.464466e-01  9.853554e+00
      vertex  1.297723e+01  5.000000e-01  9.500000e+00
      vertex  1.297723e+01  6.464466e-01  9.853554e+00
    endloop
  endfacet
  facet normal  0.000000e+00 -3.826826e-01  9.238799e-01
    outer loop
      vertex  3.162278e+00  6.464466e-01  9.853554e+00
      vertex  1.297723e+01  6.464466e-01  9.853554e+00
      vertex  3.162278e+00  1.000000e+00  1.000000e+01
    endloop
  endfacet
  facet normal  0.000000e+00 -3.826826e-01  9.238799e-01
    outer loop
      vertex  3.162278e+00  1.000000e+00  1.000000e+01
      vertex  1.297723e+01  6.464466e-01  9.853554e+00
      vertex  1.297723e+01  1.000000e+00  1.000000e+01
    endloop
  endfacet
  facet normal  0.000000e+00 -9.238797e-01  3.826830e-01
    outer loop
      vertex -1.297723e+01  5.000000e-01  9.500000e+00
      vertex -3.162278e+00  5.000000e-01  9.500000e+00
      vertex -1.297723e+01  6.464466e-01  9.853554e+00
    endloop
  endfacet
  facet normal  0.000000e+00 -9.238797e-01  3.826830e-01
    outer loop
      vertex -1.297723e+01  6.464466e-01  9.853554e+00
      vertex -3.162278e+00  5.000000e-01  9.500000e+00
      vertex -3.162278e+00  6.464466e-01  9.853554e+00
    endloop
  endfacet
  facet normal  0.000000e+00 -3.826826e-01  9.238799e-01
    outer loop
      vertex -1.297723e+01  6.464466e-01  9.853554e+00
      vertex -3.162278e+00  6.464466e-01  9.853554e+00
      vertex -1.297723e+01  1.000000e+00  1.000000e+01
    endloop
  endfacet
  facet normal  0.000000e+00 -3.826826e-01  9.238799e-01
    outer loop
      vertex -1.297723e+01  1.000000e+00  1.000000e+01
      vertex -3.162278e+00  6.464466e-01  9.853554e+00
      vertex -3.162278e+00  1.000000e+00  1.000000e+01
    endloop
  endfacet
  facet normal -2.782497e-01 -9.605088e-01  -0.000000e+00
    outer loop
      vertex  3.162278e+00  5.000000e-01  5.000000e-01
      vertex  3.162278e+00  5.000000e-01  9.500000e+00
      vertex  2.627755e+00  6.548458e-01  5.000000e-01
    endloop
  endfacet
  facet normal -2.782497e-01 -9.605088e-01  0.000000e+00
    outer loop
      vertex  2.627755e+00  6.548458e-01  5.000000e-01
      vertex  3.162278e+00  5.000000e-01  9.500000e+00
      vertex  2.627755e+00  6.548458e-01  9.500000e+00
    endloop
  endfacet
  facet normal -7.485774e-01 -6.630474e-01  -0.000000e+00
    outer loop
      vertex  2.627755e+00  6.548458e-01  5.000000e-01
      vertex  2.627755e+00  6.548458e-01  9.500000e+00
      vertex  2.258770e+00  1.071429e+00  5.000000e-01
    endloop
  endfacet
  facet normal -7.485774e-01 -6.630474e-01  0.000000e+00
    outer loop
      vertex  2.258770e+00  1.071429e+00  5.000000e-01
      vertex  2.627755e+00  6.548458e-01  9.500000e+00
      vertex  2.258770e+00  1.071429e+00  9.500000e+00
    endloop
  endfacet
  facet normal  6.830449e-01 -7.303764e-01  0.000000e+00
    outer loop
      vertex -9.179182e-01  2.325387e+00  5.000000e-01
      vertex -2.258770e+00  1.071429e+00  9.500000e+00
      vertex -2.258770e+00  1.071429e+00  5.000000e-01
    endloop
  endfacet
  facet normal  6.830449e-01 -7.303764e-01  0.000000e+00
    outer loop
      vertex -2.258770e+00  1.071429e+00  9.500000e+00
      vertex -9.179182e-01  2.325387e+00  5.000000e-01
      vertex -9.179182e-01  2.325387e+00  9.500000e+00
    endloop
  endfacet
  facet normal  0.000000e+00 -1.000000e+00  0.000000e+00
    outer loop
      vertex -9.179182e-01  2.325387e+00  9.500000e+00
      vertex -9.179182e-01  2.325387e+00  5.000000e-01
      vertex  9.179182e-01  2.325387e+00  5.000000e-01
    endloop
  endfacet
  facet normal  0.000000e+00 -1.000000e+00  0.000000e+00
    outer loop
      vertex -9.179182e-01  2.325387e+00  9.500000e+00
      vertex  9.179182e-01  2.325387e+00  5.000000e-01
      vertex  9.179182e-01  2.325387e+00  9.500000e+00
    endloop
  endfacet
  facet normal -6.830449e-01 -7.303764e-01  -0.000000e+00
    outer loop
      vertex  9.179182e-01  2.325387e+00  9.500000e+00
      vertex  9.179182e-01  2.325387e+00  5.000000e-01
      vertex  2.258770e+00  1.071429e+00  5.000000e-01
    endloop
  endfacet
  facet normal -6.830449e-01 -7.303764e-01  0.000000e+00
    outer loop
      vertex  9.179182e-01  2.325387e+00  9.500000e+00
      vertex  2.258770e+00  1.071429e+00  5.000000e-01
      vertex  2.258770e+00  1.071429e+00  9.500000e+00
    endloop
  endfacet
  facet normal  7.485774e-01 -6.630474e-01  0.000000e+00
    outer loop
      vertex -2.258770e+00  1.071429e+00  5.000000e-01
      vertex -2.258770e+00  1.071429e+00  9.500000e+00
      vertex -2.627755e+00  6.548458e-01  5.000000e-01
    endloop
  endfacet
  facet normal  7.485774e-01 -6.630474e-01  0.000000e+00
    outer loop
      vertex -2.627755e+00  6.548458e-01  5.000000e-01
      vertex -2.258770e+00  1.071429e+00  9.500000e+00
      vertex -2.627755e+00  6.548458e-01  9.500000e+00
    endloop
  endfacet
  facet normal  2.782497e-01 -9.605088e-01  0.000000e+00
    outer loop
      vertex -2.627755e+00  6.548458e-01  5.000000e-01
      vertex -2.627755e+00  6.548458e-01  9.500000e+00
      vertex -3.162278e+00  5.000000e-01  5.000000e-01
    endloop
  endfacet
  facet normal  2.782497e-01 -9.605088e-01  0.000000e+00
    outer loop
      vertex -3.162278e+00  5.000000e-01  5.000000e-01
      vertex -2.627755e+00  6.548458e-01  9.500000e+00
      vertex -3.162278e+00  5.000000e-01  9.500000e+00
    endloop
  endfacet
  facet normal -9.124874e-01 -1.565581e-01  3.779633e-01
    outer loop
      vertex -1.347723e+01  1.000000e+00  9.500000e+00
      vertex -1.333078e+01  7.500000e-01  9.750000e+00
      vertex -1.333078e+01  1.000000e+00  9.853554e+00
    endloop
  endfacet
  facet normal -9.124873e-01 -3.779636e-01  1.565577e-01
    outer loop
      vertex -1.347723e+01  1.000000e+00  9.500000e+00
      vertex -1.333078e+01  6.464466e-01  9.500000e+00
      vertex -1.333078e+01  7.500000e-01  9.750000e+00
    endloop
  endfacet
  facet normal -3.574063e-01 -8.628563e-01  3.574069e-01
    outer loop
      vertex -1.333078e+01  6.464466e-01  9.500000e+00
      vertex -1.297723e+01  5.000000e-01  9.500000e+00
      vertex -1.333078e+01  7.500000e-01  9.750000e+00
    endloop
  endfacet
  facet normal -3.574068e-01 -8.628564e-01  3.574064e-01
    outer loop
      vertex -1.333078e+01  7.500000e-01  9.750000e+00
      vertex -1.297723e+01  5.000000e-01  9.500000e+00
      vertex -1.297723e+01  6.464466e-01  9.853554e+00
    endloop
  endfacet
  facet normal -3.574074e-01 -3.574077e-01  8.628555e-01
    outer loop
      vertex -1.333078e+01  7.500000e-01  9.750000e+00
      vertex -1.297723e+01  6.464466e-01  9.853554e+00
      vertex -1.333078e+01  1.000000e+00  9.853554e+00
    endloop
  endfacet
  facet normal -3.574057e-01 -3.574060e-01  8.628569e-01
    outer loop
      vertex -1.333078e+01  1.000000e+00  9.853554e+00
      vertex -1.297723e+01  6.464466e-01  9.853554e+00
      vertex -1.297723e+01  1.000000e+00  1.000000e+01
    endloop
  endfacet
  facet normal -3.826830e-01 -9.238797e-01  -0.000000e+00
    outer loop
      vertex -1.297723e+01  5.000000e-01  5.000000e-01
      vertex -1.297723e+01  5.000000e-01  9.500000e+00
      vertex -1.333078e+01  6.464466e-01  5.000000e-01
    endloop
  endfacet
  facet normal -3.826830e-01 -9.238797e-01  0.000000e+00
    outer loop
      vertex -1.333078e+01  6.464466e-01  5.000000e-01
      vertex -1.297723e+01  5.000000e-01  9.500000e+00
      vertex -1.333078e+01  6.464466e-01  9.500000e+00
    endloop
  endfacet
  facet normal -9.238799e-01 -3.826826e-01  -0.000000e+00
    outer loop
      vertex -1.333078e+01  6.464466e-01  5.000000e-01
      vertex -1.333078e+01  6.464466e-01  9.500000e+00
      vertex -1.347723e+01  1.000000e+00  5.000000e-01
    endloop
  endfacet
  facet normal -9.238799e-01 -3.826826e-01  0.000000e+00
    outer loop
      vertex -1.347723e+01  1.000000e+00  5.000000e-01
      vertex -1.333078e+01  6.464466e-01  9.500000e+00
      vertex -1.347723e+01  1.000000e+00  9.500000e+00
    endloop
  endfacet
  facet normal -1.565580e-01 -9.124870e-01 -3.779644e-01
    outer loop
      vertex -1.297723e+01  5.000000e-01  5.000000e-01
      vertex -1.322723e+01  6.464466e-01  2.500000e-01
      vertex -1.297723e+01  6.464466e-01  1.464466e-01
    endloop
  endfacet
  facet normal -3.779640e-01 -9.124871e-01 -1.565584e-01
    outer loop
      vertex -1.297723e+01  5.000000e-01  5.000000e-01
      vertex -1.333078e+01  6.464466e-01  5.000000e-01
      vertex -1.322723e+01  6.464466e-01  2.500000e-01
    endloop
  endfacet
  facet normal -8.628561e-01 -3.574058e-01 -3.574080e-01
    outer loop
      vertex -1.333078e+01  6.464466e-01  5.000000e-01
      vertex -1.347723e+01  1.000000e+00  5.000000e-01
      vertex -1.322723e+01  6.464466e-01  2.500000e-01
    endloop
  endfacet
  facet normal -8.628563e-01 -3.574075e-01 -3.574059e-01
    outer loop
      vertex -1.322723e+01  6.464466e-01  2.500000e-01
      vertex -1.347723e+01  1.000000e+00  5.000000e-01
      vertex -1.333078e+01  1.000000e+00  1.464466e-01
    endloop
  endfacet
  facet normal -3.574067e-01 -3.574070e-01 -8.628561e-01
    outer loop
      vertex -1.322723e+01  6.464466e-01  2.500000e-01
      vertex -1.333078e+01  1.000000e+00  1.464466e-01
      vertex -1.297723e+01  6.464466e-01  1.464466e-01
    endloop
  endfacet
  facet normal -3.574064e-01 -3.574068e-01 -8.628563e-01
    outer loop
      vertex -1.297723e+01  6.464466e-01  1.464466e-01
      vertex -1.333078e+01  1.000000e+00  1.464466e-01
      vertex -1.297723e+01  1.000000e+00  0.000000e+00
    endloop
  endfacet
  facet normal  -0.000000e+00 -3.826834e-01 -9.238795e-01
    outer loop
      vertex -1.297723e+01  1.000000e+00  0.000000e+00
      vertex -3.162278e+00  1.000000e+00  0.000000e+00
      vertex -1.297723e+01  6.464466e-01  1.464466e-01
    endloop
  endfacet
  facet normal  0.000000e+00 -3.826834e-01 -9.238795e-01
    outer loop
      vertex -1.297723e+01  6.464466e-01  1.464466e-01
      vertex -3.162278e+00  1.000000e+00  0.000000e+00
      vertex -3.162278e+00  6.464466e-01  1.464466e-01
    endloop
  endfacet
  facet normal  -0.000000e+00 -9.238796e-01 -3.826834e-01
    outer loop
      vertex -1.297723e+01  6.464466e-01  1.464466e-01
      vertex -3.162278e+00  6.464466e-01  1.464466e-01
      vertex -1.297723e+01  5.000000e-01  5.000000e-01
    endloop
  endfacet
  facet normal  0.000000e+00 -9.238796e-01 -3.826834e-01
    outer loop
      vertex -1.297723e+01  5.000000e-01  5.000000e-01
      vertex -3.162278e+00  6.464466e-01  1.464466e-01
      vertex -3.162278e+00  5.000000e-01  5.000000e-01
    endloop
  endfacet
  facet normal  6.955497e-01 -6.160786e-01 -3.696725e-01
    outer loop
      vertex -2.258770e+00  1.071429e+00  5.000000e-01
      vertex -2.627755e+00  6.548458e-01  5.000000e-01
      vertex -2.391085e+00  1.134191e+00  1.464466e-01
    endloop
  endfacet
  facet normal  6.955497e-01 -6.160786e-01 -3.696725e-01
    outer loop
      vertex -2.391085e+00  1.134191e+00  1.464466e-01
      vertex -2.627755e+00  6.548458e-01  5.000000e-01
      vertex -2.706034e+00  7.786157e-01  1.464466e-01
    endloop
  endfacet
  facet normal  2.964303e-01 -2.625612e-01 -9.182541e-01
    outer loop
      vertex -2.391085e+00  1.134191e+00  1.464466e-01
      vertex -2.706034e+00  7.786157e-01  1.464466e-01
      vertex -2.710524e+00  1.285714e+00  0.000000e+00
    endloop
  endfacet
  facet normal  2.964302e-01 -2.625612e-01 -9.182542e-01
    outer loop
      vertex -2.710524e+00  1.285714e+00  0.000000e+00
      vertex -2.706034e+00  7.786157e-01  1.464466e-01
      vertex -2.895016e+00  1.077423e+00  0.000000e+00
    endloop
  endfacet
  facet normal  2.585391e-01 -8.924684e-01 -3.696724e-01
    outer loop
      vertex -2.627755e+00  6.548458e-01  5.000000e-01
      vertex -3.162278e+00  5.000000e-01  5.000000e-01
      vertex -2.706034e+00  7.786157e-01  1.464466e-01
    endloop
  endfacet
  facet normal  2.585391e-01 -8.924684e-01 -3.696724e-01
    outer loop
      vertex -2.706034e+00  7.786157e-01  1.464466e-01
      vertex -3.162278e+00  5.000000e-01  5.000000e-01
      vertex -3.162278e+00  6.464466e-01  1.464466e-01
    endloop
  endfacet
  facet normal  1.101845e-01 -3.803533e-01 -9.182541e-01
    outer loop
      vertex -2.706034e+00  7.786157e-01  1.464466e-01
      vertex -3.162278e+00  6.464466e-01  1.464466e-01
      vertex -2.895016e+00  1.077423e+00  0.000000e+00
    endloop
  endfacet
  facet normal  1.101845e-01 -3.803534e-01 -9.182542e-01
    outer loop
      vertex -2.895016e+00  1.077423e+00  0.000000e+00
      vertex -3.162278e+00  6.464466e-01  1.464466e-01
      vertex -3.162278e+00  1.000000e+00  0.000000e+00
    endloop
  endfacet
  facet normal -6.955498e-01 -6.160784e-01 -3.696726e-01
    outer loop
      vertex  2.258770e+00  1.071429e+00  5.000000e-01
      vertex  1.414585e+00  2.236656e+00  1.464466e-01
      vertex  2.391085e+00  1.134191e+00  1.464466e-01
    endloop
  endfacet
  facet normal -5.395677e-01 -5.769569e-01 -6.131781e-01
    outer loop
      vertex  2.258770e+00  1.071429e+00  5.000000e-01
      vertex  9.179182e-01  2.325387e+00  5.000000e-01
      vertex  1.414585e+00  2.236656e+00  1.464466e-01
    endloop
  endfacet
  facet normal  5.395677e-01 -5.769570e-01 -6.131781e-01
    outer loop
      vertex -2.258770e+00  1.071429e+00  5.000000e-01
      vertex -1.414585e+00  2.236656e+00  1.464466e-01
      vertex -9.179182e-01  2.325387e+00  5.000000e-01
    endloop
  endfacet
  facet normal  6.955498e-01 -6.160784e-01 -3.696725e-01
    outer loop
      vertex -2.258770e+00  1.071429e+00  5.000000e-01
      vertex -2.391085e+00  1.134191e+00  1.464466e-01
      vertex -1.414585e+00  2.236656e+00  1.464466e-01
    endloop
  endfacet
  facet normal -2.751784e-01 -9.499068e-01 -1.481681e-01
    outer loop
      vertex  9.179182e-01  2.325387e+00  5.000000e-01
      vertex  2.220446e-15  2.646447e+00  1.464466e-01
      vertex  1.414585e+00  2.236656e+00  1.464466e-01
    endloop
  endfacet
  facet normal  2.751784e-01 -9.499068e-01 -1.481681e-01
    outer loop
      vertex -9.179182e-01  2.325387e+00  5.000000e-01
      vertex -1.414585e+00  2.236656e+00  1.464466e-01
      vertex  2.220446e-15  2.646447e+00  1.464466e-01
    endloop
  endfacet
  facet normal  0.000000e+00 -7.403075e-01 -6.722683e-01
    outer loop
      vertex -9.179182e-01  2.325387e+00  5.000000e-01
      vertex  2.220446e-15  2.646447e+00  1.464466e-01
      vertex  9.179182e-01  2.325387e+00  5.000000e-01
    endloop
  endfacet
  facet normal -2.964304e-01 -2.625611e-01 -9.182541e-01
    outer loop
      vertex  2.710524e+00  1.285714e+00  0.000000e+00
      vertex  2.391085e+00  1.134191e+00  1.464466e-01
      vertex  1.603567e+00  2.535463e+00  0.000000e+00
    endloop
  endfacet
  facet normal -2.964303e-01 -2.625611e-01 -9.182541e-01
    outer loop
      vertex  1.603567e+00  2.535463e+00  0.000000e+00
      vertex  2.391085e+00  1.134191e+00  1.464466e-01
      vertex  1.414585e+00  2.236656e+00  1.464466e-01
    endloop
  endfacet
  facet normal -1.101845e-01 -3.803533e-01 -9.182541e-01
    outer loop
      vertex  1.603567e+00  2.535463e+00  0.000000e+00
      vertex  1.414585e+00  2.236656e+00  1.464466e-01
      vertex -8.931620e-17  3.000000e+00  0.000000e+00
    endloop
  endfacet
  facet normal -1.101845e-01 -3.803534e-01 -9.182541e-01
    outer loop
      vertex -8.931620e-17  3.000000e+00  0.000000e+00
      vertex  1.414585e+00  2.236656e+00  1.464466e-01
      vertex  2.220446e-15  2.646447e+00  1.464466e-01
    endloop
  endfacet
  facet normal  1.101845e-01 -3.803534e-01 -9.182541e-01
    outer loop
      vertex -8.931620e-17  3.000000e+00  0.000000e+00
      vertex  2.220446e-15  2.646447e+00  1.464466e-01
      vertex -1.603567e+00  2.535463e+00  0.000000e+00
    endloop
  endfacet
  facet normal  1.101845e-01 -3.803533e-01 -9.182541e-01
    outer loop
      vertex -1.603567e+00  2.535463e+00  0.000000e+00
      vertex  2.220446e-15  2.646447e+00  1.464466e-01
      vertex -1.414585e+00  2.236656e+00  1.464466e-01
    endloop
  endfacet
  facet normal  2.964303e-01 -2.625611e-01 -9.182541e-01
    outer loop
      vertex -1.603567e+00  2.535463e+00  0.000000e+00
      vertex -1.414585e+00  2.236656e+00  1.464466e-01
      vertex -2.710524e+00  1.285714e+00  0.000000e+00
    endloop
  endfacet
  facet normal  2.964303e-01 -2.625611e-01 -9.182541e-01
    outer loop
      vertex -2.710524e+00  1.285714e+00  0.000000e+00
      vertex -1.414585e+00  2.236656e+00  1.464466e-01
      vertex -2.391085e+00  1.134191e+00  1.464466e-01
    endloop
  endfacet
  facet normal -2.585391e-01 -8.924684e-01 -3.696724e-01
    outer loop
      vertex  3.162278e+00  5.000000e-01  5.000000e-01
      vertex  2.627755e+00  6.548458e-01  5.000000e-01
      vertex  3.162278e+00  6.464466e-01  1.464466e-01
    endloop
  endfacet
  facet normal -2.585391e-01 -8.924684e-01 -3.696724e-01
    outer loop
      vertex  3.162278e+00  6.464466e-01  1.464466e-01
      vertex  2.627755e+00  6.548458e-01  5.000000e-01
      vertex  2.706034e+00  7.786157e-01  1.464466e-01
    endloop
  endfacet
  facet normal -1.101845e-01 -3.803533e-01 -9.182542e-01
    outer loop
      vertex  3.162278e+00  6.464466e-01  1.464466e-01
      vertex  2.706034e+00  7.786157e-01  1.464466e-01
      vertex  3.162278e+00  1.000000e+00  0.000000e+00
    endloop
  endfacet
  facet normal -1.101845e-01 -3.803534e-01 -9.182541e-01
    outer loop
      vertex  3.162278e+00  1.000000e+00  0.000000e+00
      vertex  2.706034e+00  7.786157e-01  1.464466e-01
      vertex  2.895016e+00  1.077423e+00  0.000000e+00
    endloop
  endfacet
  facet normal -6.955497e-01 -6.160786e-01 -3.696725e-01
    outer loop
      vertex  2.627755e+00  6.548458e-01  5.000000e-01
      vertex  2.258770e+00  1.071429e+00  5.000000e-01
      vertex  2.706034e+00  7.786157e-01  1.464466e-01
    endloop
  endfacet
  facet normal -6.955497e-01 -6.160786e-01 -3.696725e-01
    outer loop
      vertex  2.706034e+00  7.786157e-01  1.464466e-01
      vertex  2.258770e+00  1.071429e+00  5.000000e-01
      vertex  2.391085e+00  1.134191e+00  1.464466e-01
    endloop
  endfacet
  facet normal -2.964303e-01 -2.625612e-01 -9.182541e-01
    outer loop
      vertex  2.706034e+00  7.786157e-01  1.464466e-01
      vertex  2.391085e+00  1.134191e+00  1.464466e-01
      vertex  2.895016e+00  1.077423e+00  0.000000e+00
    endloop
  endfacet
  facet normal -2.964303e-01 -2.625613e-01 -9.182541e-01
    outer loop
      vertex  2.895016e+00  1.077423e+00  0.000000e+00
      vertex  2.391085e+00  1.134191e+00  1.464466e-01
      vertex  2.710524e+00  1.285714e+00  0.000000e+00
    endloop
  endfacet
  facet normal  -0.000000e+00 -3.826834e-01 -9.238795e-01
    outer loop
      vertex  3.162278e+00  1.000000e+00  0.000000e+00
      vertex  1.297723e+01  1.000000e+00  0.000000e+00
      vertex  3.162278e+00  6.464466e-01  1.464466e-01
    endloop
  endfacet
  facet normal  0.000000e+00 -3.826834e-01 -9.238795e-01
    outer loop
      vertex  3.162278e+00  6.464466e-01  1.464466e-01
      vertex  1.297723e+01  1.000000e+00  0.000000e+00
      vertex  1.297723e+01  6.464466e-01  1.464466e-01
    endloop
  endfacet
  facet normal  -0.000000e+00 -9.238796e-01 -3.826834e-01
    outer loop
      vertex  3.162278e+00  6.464466e-01  1.464466e-01
      vertex  1.297723e+01  6.464466e-01  1.464466e-01
      vertex  3.162278e+00  5.000000e-01  5.000000e-01
    endloop
  endfacet
  facet normal  0.000000e+00 -9.238796e-01 -3.826834e-01
    outer loop
      vertex  3.162278e+00  5.000000e-01  5.000000e-01
      vertex  1.297723e+01  6.464466e-01  1.464466e-01
      vertex  1.297723e+01  5.000000e-01  5.000000e-01
    endloop
  endfacet
  facet normal  3.779640e-01 -9.124871e-01 -1.565584e-01
    outer loop
      vertex  1.297723e+01  5.000000e-01  5.000000e-01
      vertex  1.322723e+01  6.464466e-01  2.500000e-01
      vertex  1.333078e+01  6.464466e-01  5.000000e-01
    endloop
  endfacet
  facet normal  1.565580e-01 -9.124870e-01 -3.779644e-01
    outer loop
      vertex  1.297723e+01  5.000000e-01  5.000000e-01
      vertex  1.297723e+01  6.464466e-01  1.464466e-01
      vertex  1.322723e+01  6.464466e-01  2.500000e-01
    endloop
  endfacet
  facet normal  3.574067e-01 -3.574067e-01 -8.628562e-01
    outer loop
      vertex  1.297723e+01  6.464466e-01  1.464466e-01
      vertex  1.297723e+01  1.000000e+00  0.000000e+00
      vertex  1.322723e+01  6.464466e-01  2.500000e-01
    endloop
  endfacet
  facet normal  3.574064e-01 -3.574070e-01 -8.628563e-01
    outer loop
      vertex  1.322723e+01  6.464466e-01  2.500000e-01
      vertex  1.297723e+01  1.000000e+00  0.000000e+00
      vertex  1.333078e+01  1.000000e+00  1.464466e-01
    endloop
  endfacet
  facet normal  8.628554e-01 -3.574077e-01 -3.574077e-01
    outer loop
      vertex  1.322723e+01  6.464466e-01  2.500000e-01
      vertex  1.333078e+01  1.000000e+00  1.464466e-01
      vertex  1.333078e+01  6.464466e-01  5.000000e-01
    endloop
  endfacet
  facet normal  8.628567e-01 -3.574060e-01 -3.574061e-01
    outer loop
      vertex  1.333078e+01  6.464466e-01  5.000000e-01
      vertex  1.333078e+01  1.000000e+00  1.464466e-01
      vertex  1.347723e+01  1.000000e+00  5.000000e-01
    endloop
  endfacet
  facet normal  9.238799e-01 -3.826826e-01  0.000000e+00
    outer loop
      vertex  1.347723e+01  1.000000e+00  5.000000e-01
      vertex  1.347723e+01  1.000000e+00  9.500000e+00
      vertex  1.333078e+01  6.464466e-01  5.000000e-01
    endloop
  endfacet
  facet normal  9.238799e-01 -3.826826e-01  0.000000e+00
    outer loop
      vertex  1.333078e+01  6.464466e-01  5.000000e-01
      vertex  1.347723e+01  1.000000e+00  9.500000e+00
      vertex  1.333078e+01  6.464466e-01  9.500000e+00
    endloop
  endfacet
  facet normal  3.826830e-01 -9.238797e-01  0.000000e+00
    outer loop
      vertex  1.333078e+01  6.464466e-01  5.000000e-01
      vertex  1.333078e+01  6.464466e-01  9.500000e+00
      vertex  1.297723e+01  5.000000e-01  5.000000e-01
    endloop
  endfacet
  facet normal  3.826830e-01 -9.238797e-01  0.000000e+00
    outer loop
      vertex  1.297723e+01  5.000000e-01  5.000000e-01
      vertex  1.333078e+01  6.464466e-01  9.500000e+00
      vertex  1.297723e+01  5.000000e-01  9.500000e+00
    endloop
  endfacet
  facet normal  9.124873e-01 -3.779636e-01  1.565577e-01
    outer loop
      vertex  1.347723e+01  1.000000e+00  9.500000e+00
      vertex  1.333078e+01  7.500000e-01  9.750000e+00
      vertex  1.333078e+01  6.464466e-01  9.500000e+00
    endloop
  endfacet
  facet normal  9.124874e-01 -1.565581e-01  3.779633e-01
    outer loop
      vertex  1.347723e+01  1.000000e+00  9.500000e+00
      vertex  1.333078e+01  1.000000e+00  9.853554e+00
      vertex  1.333078e+01  7.500000e-01  9.750000e+00
    endloop
  endfacet
  facet normal  3.574054e-01 -3.574080e-01  8.628561e-01
    outer loop
      vertex  1.333078e+01  1.000000e+00  9.853554e+00
      vertex  1.297723e+01  1.000000e+00  1.000000e+01
      vertex  1.333078e+01  7.500000e-01  9.750000e+00
    endloop
  endfacet
  facet normal  3.574071e-01 -3.574059e-01  8.628564e-01
    outer loop
      vertex  1.333078e+01  7.500000e-01  9.750000e+00
      vertex  1.297723e+01  1.000000e+00  1.000000e+01
      vertex  1.297723e+01  6.464466e-01  9.853554e+00
    endloop
  endfacet
  facet normal  3.574068e-01 -8.628561e-01  3.574068e-01
    outer loop
      vertex  1.333078e+01  7.500000e-01  9.750000e+00
      vertex  1.297723e+01  6.464466e-01  9.853554e+00
      vertex  1.333078e+01  6.464466e-01  9.500000e+00
    endloop
  endfacet
  facet normal  3.574064e-01 -8.628565e-01  3.574064e-01
    outer loop
      vertex  1.333078e+01  6.464466e-01  9.500000e+00
      vertex  1.297723e+01  6.464466e-01  9.853554e+00
      vertex  1.297723e+01  5.000000e-01  9.500000e+00
    endloop
  endfacet
  facet normal  9.238800e-01  0.000000e+00  3.826822e-01
    outer loop
      vertex  1.347723e+01  1.000000e+00  9.500000e+00
      vertex  1.347723e+01  3.000000e+00  9.500000e+00
      vertex  1.333078e+01  1.000000e+00  9.853554e+00
    endloop
  endfacet
  facet normal  9.238800e-01  -0.000000e+00  3.826822e-01
    outer loop
      vertex  1.333078e+01  1.000000e+00  9.853554e+00
      vertex  1.347723e+01  3.000000e+00  9.500000e+00
      vertex  1.333078e+01  3.000000e+00  9.853554e+00
    endloop
  endfacet
  facet normal  3.826822e-01  0.000000e+00  9.238800e-01
    outer loop
      vertex  1.333078e+01  1.000000e+00  9.853554e+00
      vertex  1.333078e+01  3.000000e+00  9.853554e+00
      vertex  1.297723e+01  1.000000e+00  1.000000e+01
    endloop
  endfacet
  facet normal  3.826822e-01  -0.000000e+00  9.238800e-01
    outer loop
      vertex  1.297723e+01  1.000000e+00  1.000000e+01
      vertex  1.333078e+01  3.000000e+00  9.853554e+00
      vertex  1.297723e+01  3.000000e+00  1.000000e+01
    endloop
  endfacet
  facet normal  9.124874e-01  1.565581e-01  3.779633e-01
    outer loop
      vertex  1.347723e+01  3.000000e+00  9.500000e+00
      vertex  1.333078e+01  3.250000e+00  9.750000e+00
      vertex  1.333078e+01  3.000000e+00  9.853554e+00
    endloop
  endfacet
  facet normal  9.124873e-01  3.779637e-01  1.565576e-01
    outer loop
      vertex  1.347723e+01  3.000000e+00  9.500000e+00
      vertex  1.333078e+01  3.353553e+00  9.500000e+00
      vertex  1.333078e+01  3.250000e+00  9.750000e+00
    endloop
  endfacet
  facet normal  3.574066e-01  8.628563e-01  3.574065e-01
    outer loop
      vertex  1.333078e+01  3.353553e+00  9.500000e+00
      vertex  1.297723e+01  3.500000e+00  9.500000e+00
      vertex  1.333078e+01  3.250000e+00  9.750000e+00
    endloop
  endfacet
  facet normal  3.574065e-01  8.628563e-01  3.574066e-01
    outer loop
      vertex  1.333078e+01  3.250000e+00  9.750000e+00
      vertex  1.297723e+01  3.500000e+00  9.500000e+00
      vertex  1.297723e+01  3.353553e+00  9.853554e+00
    endloop
  endfacet
  facet normal  3.574073e-01  3.574078e-01  8.628556e-01
    outer loop
      vertex  1.333078e+01  3.250000e+00  9.750000e+00
      vertex  1.297723e+01  3.353553e+00  9.853554e+00
      vertex  1.333078e+01  3.000000e+00  9.853554e+00
    endloop
  endfacet
  facet normal  3.574057e-01  3.574062e-01  8.628569e-01
    outer loop
      vertex  1.333078e+01  3.000000e+00  9.853554e+00
      vertex  1.297723e+01  3.353553e+00  9.853554e+00
      vertex  1.297723e+01  3.000000e+00  1.000000e+01
    endloop
  endfacet
  facet normal  3.826833e-01  9.238795e-01  0.000000e+00
    outer loop
      vertex  1.297723e+01  3.500000e+00  5.000000e-01
      vertex  1.297723e+01  3.500000e+00  9.500000e+00
      vertex  1.333078e+01  3.353553e+00  5.000000e-01
    endloop
  endfacet
  facet normal  3.826833e-01  9.238795e-01  -0.000000e+00
    outer loop
      vertex  1.333078e+01  3.353553e+00  5.000000e-01
      vertex  1.297723e+01  3.500000e+00  9.500000e+00
      vertex  1.333078e+01  3.353553e+00  9.500000e+00
    endloop
  endfacet
  facet normal  9.238799e-01  3.826827e-01  0.000000e+00
    outer loop
      vertex  1.333078e+01  3.353553e+00  5.000000e-01
      vertex  1.333078e+01  3.353553e+00  9.500000e+00
      vertex  1.347723e+01  3.000000e+00  5.000000e-01
    endloop
  endfacet
  facet normal  9.238799e-01  3.826827e-01  -0.000000e+00
    outer loop
      vertex  1.347723e+01  3.000000e+00  5.000000e-01
      vertex  1.333078e+01  3.353553e+00  9.500000e+00
      vertex  1.347723e+01  3.000000e+00  9.500000e+00
    endloop
  endfacet
  facet normal  1.565581e-01  9.124869e-01 -3.779647e-01
    outer loop
      vertex  1.297723e+01  3.500000e+00  5.000000e-01
      vertex  1.322723e+01  3.353553e+00  2.500000e-01
      vertex  1.297723e+01  3.353553e+00  1.464466e-01
    endloop
  endfacet
  facet normal  3.779643e-01  9.124869e-01 -1.565585e-01
    outer loop
      vertex  1.297723e+01  3.500000e+00  5.000000e-01
      vertex  1.333078e+01  3.353553e+00  5.000000e-01
      vertex  1.322723e+01  3.353553e+00  2.500000e-01
    endloop
  endfacet
  facet normal  8.628560e-01  3.574058e-01 -3.574080e-01
    outer loop
      vertex  1.333078e+01  3.353553e+00  5.000000e-01
      vertex  1.347723e+01  3.000000e+00  5.000000e-01
      vertex  1.322723e+01  3.353553e+00  2.500000e-01
    endloop
  endfacet
  facet normal  8.628563e-01  3.574075e-01 -3.574058e-01
    outer loop
      vertex  1.322723e+01  3.353553e+00  2.500000e-01
      vertex  1.347723e+01  3.000000e+00  5.000000e-01
      vertex  1.333078e+01  3.000000e+00  1.464466e-01
    endloop
  endfacet
  facet normal  3.574067e-01  3.574072e-01 -8.628561e-01
    outer loop
      vertex  1.322723e+01  3.353553e+00  2.500000e-01
      vertex  1.333078e+01  3.000000e+00  1.464466e-01
      vertex  1.297723e+01  3.353553e+00  1.464466e-01
    endloop
  endfacet
  facet normal  3.574064e-01  3.574069e-01 -8.628563e-01
    outer loop
      vertex  1.297723e+01  3.353553e+00  1.464466e-01
      vertex  1.333078e+01  3.000000e+00  1.464466e-01
      vertex  1.297723e+01  3.000000e+00  0.000000e+00
    endloop
  endfacet
  facet normal  0.000000e+00  3.826835e-01 -9.238795e-01
    outer loop
      vertex  1.297723e+01  3.000000e+00  0.000000e+00
      vertex  5.099020e+00  3.000000e+00  0.000000e+00
      vertex  1.297723e+01  3.353553e+00  1.464466e-01
    endloop
  endfacet
  facet normal  0.000000e+00  3.826835e-01 -9.238795e-01
    outer loop
      vertex  1.297723e+01  3.353553e+00  1.464466e-01
      vertex  5.099020e+00  3.000000e+00  0.000000e+00
      vertex  5.099020e+00  3.353553e+00  1.464466e-01
    endloop
  endfacet
  facet normal  0.000000e+00  9.238794e-01 -3.826837e-01
    outer loop
      vertex  1.297723e+01  3.353553e+00  1.464466e-01
      vertex  5.099020e+00  3.353553e+00  1.464466e-01
      vertex  1.297723e+01  3.500000e+00  5.000000e-01
    endloop
  endfacet
  facet normal  0.000000e+00  9.238794e-01 -3.826837e-01
    outer loop
      vertex  1.297723e+01  3.500000e+00  5.000000e-01
      vertex  5.099020e+00  3.353553e+00  1.464466e-01
      vertex  5.099020e+00  3.500000e+00  5.000000e-01
    endloop
  endfacet
  facet normal  4.925374e-01  7.844092e-01 -3.769736e-01
    outer loop
      vertex  3.739281e+00  4.033333e+00  5.000000e-01
      vertex  4.315248e+00  3.501767e+00  1.464466e-01
      vertex  3.639716e+00  3.925939e+00  1.464466e-01
    endloop
  endfacet
  facet normal  2.844625e-01  7.252398e-01 -6.269835e-01
    outer loop
      vertex  3.739281e+00  4.033333e+00  5.000000e-01
      vertex  5.099020e+00  3.500000e+00  5.000000e-01
      vertex  4.315248e+00  3.501767e+00  1.464466e-01
    endloop
  endfacet
  facet normal  7.217789e-02  3.816854e-01 -9.214698e-01
    outer loop
      vertex  5.099020e+00  3.000000e+00  0.000000e+00
      vertex  4.315248e+00  3.501767e+00  1.464466e-01
      vertex  5.099020e+00  3.353553e+00  1.464466e-01
    endloop
  endfacet
  facet normal  2.297339e-01  5.857086e-01 -7.772824e-01
    outer loop
      vertex  5.099020e+00  3.000000e+00  0.000000e+00
      vertex  3.399346e+00  3.666667e+00  0.000000e+00
      vertex  4.315248e+00  3.501767e+00  1.464466e-01
    endloop
  endfacet
  facet normal  1.721017e-01  9.100944e-01 -3.769737e-01
    outer loop
      vertex  5.099020e+00  3.500000e+00  5.000000e-01
      vertex  5.099020e+00  3.353553e+00  1.464466e-01
      vertex  4.315248e+00  3.501767e+00  1.464466e-01
    endloop
  endfacet
  facet normal  2.065658e-01  3.289742e-01 -9.214697e-01
    outer loop
      vertex  3.399346e+00  3.666667e+00  0.000000e+00
      vertex  3.639716e+00  3.925939e+00  1.464466e-01
      vertex  4.315248e+00  3.501767e+00  1.464466e-01
    endloop
  endfacet
  facet normal -4.436053e-01  8.151312e-01 -3.725258e-01
    outer loop
      vertex -3.739281e+00  4.033333e+00  5.000000e-01
      vertex -1.356430e+00  5.330112e+00  5.000000e-01
      vertex -3.639716e+00  3.925939e+00  1.464466e-01
    endloop
  endfacet
  facet normal -4.436051e-01  8.151310e-01 -3.725264e-01
    outer loop
      vertex -3.639716e+00  3.925939e+00  1.464466e-01
      vertex -1.356430e+00  5.330112e+00  5.000000e-01
      vertex -1.320313e+00  5.188189e+00  1.464466e-01
    endloop
  endfacet
  facet normal -1.878689e-01  3.452120e-01 -9.195293e-01
    outer loop
      vertex -3.639716e+00  3.925939e+00  1.464466e-01
      vertex -1.320313e+00  5.188189e+00  1.464466e-01
      vertex -3.399346e+00  3.666667e+00  0.000000e+00
    endloop
  endfacet
  facet normal -1.878690e-01  3.452120e-01 -9.195292e-01
    outer loop
      vertex -3.399346e+00  3.666667e+00  0.000000e+00
      vertex -1.320313e+00  5.188189e+00  1.464466e-01
      vertex -1.233118e+00  4.845557e+00  0.000000e+00
    endloop
  endfacet
  facet normal  4.436052e-01  8.151310e-01 -3.725261e-01
    outer loop
      vertex  1.356430e+00  5.330112e+00  5.000000e-01
      vertex  3.739281e+00  4.033333e+00  5.000000e-01
      vertex  1.320313e+00  5.188189e+00  1.464466e-01
    endloop
  endfacet
  facet normal  4.436053e-01  8.151313e-01 -3.725258e-01
    outer loop
      vertex  1.320313e+00  5.188189e+00  1.464466e-01
      vertex  3.739281e+00  4.033333e+00  5.000000e-01
      vertex  3.639716e+00  3.925939e+00  1.464466e-01
    endloop
  endfacet
  facet normal  1.878689e-01  3.452119e-01 -9.195293e-01
    outer loop
      vertex  1.320313e+00  5.188189e+00  1.464466e-01
      vertex  3.639716e+00  3.925939e+00  1.464466e-01
      vertex  1.233118e+00  4.845557e+00  0.000000e+00
    endloop
  endfacet
  facet normal  1.878688e-01  3.452118e-01 -9.195293e-01
    outer loop
      vertex  1.233118e+00  4.845557e+00  0.000000e+00
      vertex  3.639716e+00  3.925939e+00  1.464466e-01
      vertex  3.399346e+00  3.666667e+00  0.000000e+00
    endloop
  endfacet
  facet normal  0.000000e+00  9.280216e-01 -3.725265e-01
    outer loop
      vertex -1.356430e+00  5.330112e+00  5.000000e-01
      vertex  1.356430e+00  5.330112e+00  5.000000e-01
      vertex -1.320313e+00  5.188189e+00  1.464466e-01
    endloop
  endfacet
  facet normal  0.000000e+00  9.280216e-01 -3.725265e-01
    outer loop
      vertex -1.320313e+00  5.188189e+00  1.464466e-01
      vertex  1.356430e+00  5.330112e+00  5.000000e-01
      vertex  1.320313e+00  5.188189e+00  1.464466e-01
    endloop
  endfacet
  facet normal  0.000000e+00  3.930217e-01 -9.195293e-01
    outer loop
      vertex -1.320313e+00  5.188189e+00  1.464466e-01
      vertex  1.320313e+00  5.188189e+00  1.464466e-01
      vertex -1.233118e+00  4.845557e+00  0.000000e+00
    endloop
  endfacet
  facet normal  0.000000e+00  3.930217e-01 -9.195291e-01
    outer loop
      vertex -1.233118e+00  4.845557e+00  0.000000e+00
      vertex  1.320313e+00  5.188189e+00  1.464466e-01
      vertex  1.233118e+00  4.845557e+00  0.000000e+00
    endloop
  endfacet
  facet normal -1.721017e-01  9.100944e-01 -3.769737e-01
    outer loop
      vertex -5.099020e+00  3.500000e+00  5.000000e-01
      vertex -4.315248e+00  3.501767e+00  1.464466e-01
      vertex -5.099020e+00  3.353553e+00  1.464466e-01
    endloop
  endfacet
  facet normal -2.844625e-01  7.252399e-01 -6.269835e-01
    outer loop
      vertex -5.099020e+00  3.500000e+00  5.000000e-01
      vertex -3.739281e+00  4.033333e+00  5.000000e-01
      vertex -4.315248e+00  3.501767e+00  1.464466e-01
    endloop
  endfacet
  facet normal -2.065658e-01  3.289742e-01 -9.214698e-01
    outer loop
      vertex -3.399346e+00  3.666667e+00  0.000000e+00
      vertex -4.315248e+00  3.501767e+00  1.464466e-01
      vertex -3.639716e+00  3.925939e+00  1.464466e-01
    endloop
  endfacet
  facet normal -2.297339e-01  5.857086e-01 -7.772824e-01
    outer loop
      vertex -3.399346e+00  3.666667e+00  0.000000e+00
      vertex -5.099020e+00  3.000000e+00  0.000000e+00
      vertex -4.315248e+00  3.501767e+00  1.464466e-01
    endloop
  endfacet
  facet normal -4.925374e-01  7.844092e-01 -3.769735e-01
    outer loop
      vertex -3.739281e+00  4.033333e+00  5.000000e-01
      vertex -3.639716e+00  3.925939e+00  1.464466e-01
      vertex -4.315248e+00  3.501767e+00  1.464466e-01
    endloop
  endfacet
  facet normal -7.217789e-02  3.816854e-01 -9.214698e-01
    outer loop
      vertex -5.099020e+00  3.000000e+00  0.000000e+00
      vertex -5.099020e+00  3.353553e+00  1.464466e-01
      vertex -4.315248e+00  3.501767e+00  1.464466e-01
    endloop
  endfacet
  facet normal  0.000000e+00  3.826835e-01 -9.238795e-01
    outer loop
      vertex -5.099020e+00  3.000000e+00  0.000000e+00
      vertex -1.297723e+01  3.000000e+00  0.000000e+00
      vertex -5.099020e+00  3.353553e+00  1.464466e-01
    endloop
  endfacet
  facet normal  0.000000e+00  3.826835e-01 -9.238795e-01
    outer loop
      vertex -5.099020e+00  3.353553e+00  1.464466e-01
      vertex -1.297723e+01  3.000000e+00  0.000000e+00
      vertex -1.297723e+01  3.353553e+00  1.464466e-01
    endloop
  endfacet
  facet normal  0.000000e+00  9.238794e-01 -3.826837e-01
    outer loop
      vertex -5.099020e+00  3.353553e+00  1.464466e-01
      vertex -1.297723e+01  3.353553e+00  1.464466e-01
      vertex -5.099020e+00  3.500000e+00  5.000000e-01
    endloop
  endfacet
  facet normal  0.000000e+00  9.238794e-01 -3.826837e-01
    outer loop
      vertex -5.099020e+00  3.500000e+00  5.000000e-01
      vertex -1.297723e+01  3.353553e+00  1.464466e-01
      vertex -1.297723e+01  3.500000e+00  5.000000e-01
    endloop
  endfacet
  facet normal -3.779643e-01  9.124869e-01 -1.565585e-01
    outer loop
      vertex -1.297723e+01  3.500000e+00  5.000000e-01
      vertex -1.322723e+01  3.353553e+00  2.500000e-01
      vertex -1.333078e+01  3.353553e+00  5.000000e-01
    endloop
  endfacet
  facet normal -1.565581e-01  9.124869e-01 -3.779647e-01
    outer loop
      vertex -1.297723e+01  3.500000e+00  5.000000e-01
      vertex -1.297723e+01  3.353553e+00  1.464466e-01
      vertex -1.322723e+01  3.353553e+00  2.500000e-01
    endloop
  endfacet
  facet normal -3.574067e-01  3.574069e-01 -8.628562e-01
    outer loop
      vertex -1.297723e+01  3.353553e+00  1.464466e-01
      vertex -1.297723e+01  3.000000e+00  0.000000e+00
      vertex -1.322723e+01  3.353553e+00  2.500000e-01
    endloop
  endfacet
  facet normal -3.574064e-01  3.574071e-01 -8.628562e-01
    outer loop
      vertex -1.322723e+01  3.353553e+00  2.500000e-01
      vertex -1.297723e+01  3.000000e+00  0.000000e+00
      vertex -1.333078e+01  3.000000e+00  1.464466e-01
    endloop
  endfacet
  facet normal -8.628553e-01  3.574078e-01 -3.574077e-01
    outer loop
      vertex -1.322723e+01  3.353553e+00  2.500000e-01
      vertex -1.333078e+01  3.000000e+00  1.464466e-01
      vertex -1.333078e+01  3.353553e+00  5.000000e-01
    endloop
  endfacet
  facet normal -8.628568e-01  3.574061e-01 -3.574061e-01
    outer loop
      vertex -1.333078e+01  3.353553e+00  5.000000e-01
      vertex -1.333078e+01  3.000000e+00  1.464466e-01
      vertex -1.347723e+01  3.000000e+00  5.000000e-01
    endloop
  endfacet
  facet normal -9.238799e-01  3.826827e-01  0.000000e+00
    outer loop
      vertex -1.347723e+01  3.000000e+00  5.000000e-01
      vertex -1.347723e+01  3.000000e+00  9.500000e+00
      vertex -1.333078e+01  3.353553e+00  5.000000e-01
    endloop
  endfacet
  facet normal -9.238799e-01  3.826827e-01  0.000000e+00
    outer loop
      vertex -1.333078e+01  3.353553e+00  5.000000e-01
      vertex -1.347723e+01  3.000000e+00  9.500000e+00
      vertex -1.333078e+01  3.353553e+00  9.500000e+00
    endloop
  endfacet
  facet normal -3.826833e-01  9.238795e-01  0.000000e+00
    outer loop
      vertex -1.333078e+01  3.353553e+00  5.000000e-01
      vertex -1.333078e+01  3.353553e+00  9.500000e+00
      vertex -1.297723e+01  3.500000e+00  5.000000e-01
    endloop
  endfacet
  facet normal -3.826833e-01  9.238795e-01  0.000000e+00
    outer loop
      vertex -1.297723e+01  3.500000e+00  5.000000e-01
      vertex -1.333078e+01  3.353553e+00  9.500000e+00
      vertex -1.297723e+01  3.500000e+00  9.500000e+00
    endloop
  endfacet
  facet normal -9.124873e-01  3.779637e-01  1.565576e-01
    outer loop
      vertex -1.347723e+01  3.000000e+00  9.500000e+00
      vertex -1.333078e+01  3.250000e+00  9.750000e+00
      vertex -1.333078e+01  3.353553e+00  9.500000e+00
    endloop
  endfacet
  facet normal -9.124874e-01  1.565581e-01  3.779633e-01
    outer loop
      vertex -1.347723e+01  3.000000e+00  9.500000e+00
      vertex -1.333078e+01  3.000000e+00  9.853554e+00
      vertex -1.333078e+01  3.250000e+00  9.750000e+00
    endloop
  endfacet
  facet normal -3.574054e-01  3.574080e-01  8.628561e-01
    outer loop
      vertex -1.333078e+01  3.000000e+00  9.853554e+00
      vertex -1.297723e+01  3.000000e+00  1.000000e+01
      vertex -1.333078e+01  3.250000e+00  9.750000e+00
    endloop
  endfacet
  facet normal -3.574070e-01  3.574060e-01  8.628564e-01
    outer loop
      vertex -1.333078e+01  3.250000e+00  9.750000e+00
      vertex -1.297723e+01  3.000000e+00  1.000000e+01
      vertex -1.297723e+01  3.353553e+00  9.853554e+00
    endloop
  endfacet
  facet normal -3.574065e-01  8.628564e-01  3.574065e-01
    outer loop
      vertex -1.333078e+01  3.250000e+00  9.750000e+00
      vertex -1.297723e+01  3.353553e+00  9.853554e+00
      vertex -1.333078e+01  3.353553e+00  9.500000e+00
    endloop
  endfacet
  facet normal -3.574066e-01  8.628563e-01  3.574066e-01
    outer loop
      vertex -1.333078e+01  3.353553e+00  9.500000e+00
      vertex -1.297723e+01  3.353553e+00  9.853554e+00
      vertex -1.297723e+01  3.500000e+00  9.500000e+00
    endloop
  endfacet
  facet normal -3.826822e-01  0.000000e+00  9.238800e-01
    outer loop
      vertex -1.297723e+01  1.000000e+00  1.000000e+01
      vertex -1.297723e+01  3.000000e+00  1.000000e+01
      vertex -1.333078e+01  1.000000e+00  9.853554e+00
    endloop
  endfacet
  facet normal -3.826822e-01  0.000000e+00  9.238800e-01
    outer loop
      vertex -1.333078e+01  1.000000e+00  9.853554e+00
      vertex -1.297723e+01  3.000000e+00  1.000000e+01
      vertex -1.333078e+01  3.000000e+00  9.853554e+00
    endloop
  endfacet
  facet normal -9.238800e-01  0.000000e+00  3.826822e-01
    outer loop
      vertex -1.333078e+01  1.000000e+00  9.853554e+00
      vertex -1.333078e+01  3.000000e+00  9.853554e+00
      vertex -1.347723e+01  1.000000e+00  9.500000e+00
    endloop
  endfacet
  facet normal -9.238800e-01  0.000000e+00  3.826822e-01
    outer loop
      vertex -1.347723e+01  1.000000e+00  9.500000e+00
      vertex -1.333078e+01  3.000000e+00  9.853554e+00
      vertex -1.347723e+01  3.000000e+00  9.500000e+00
    endloop
  endfacet
  facet normal  2.065653e-01  3.289735e-01  9.214701e-01
    outer loop
      vertex  3.399346e+00  3.666667e+00  1.000000e+01
      vertex  4.315248e+00  3.501767e+00  9.853554e+00
      vertex  3.639716e+00  3.925939e+00  9.853554e+00
    endloop
  endfacet
  facet normal  2.297335e-01  5.857077e-01  7.772831e-01
    outer loop
      vertex  3.399346e+00  3.666667e+00  1.000000e+01
      vertex  5.099020e+00  3.000000e+00  1.000000e+01
      vertex  4.315248e+00  3.501767e+00  9.853554e+00
    endloop
  endfacet
  facet normal  1.721017e-01  9.100946e-01  3.769734e-01
    outer loop
      vertex  5.099020e+00  3.500000e+00  9.500000e+00
      vertex  4.315248e+00  3.501767e+00  9.853554e+00
      vertex  5.099020e+00  3.353553e+00  9.853554e+00
    endloop
  endfacet
  facet normal  2.844626e-01  7.252402e-01  6.269830e-01
    outer loop
      vertex  5.099020e+00  3.500000e+00  9.500000e+00
      vertex  3.739281e+00  4.033333e+00  9.500000e+00
      vertex  4.315248e+00  3.501767e+00  9.853554e+00
    endloop
  endfacet
  facet normal  7.217773e-02  3.816845e-01  9.214702e-01
    outer loop
      vertex  5.099020e+00  3.000000e+00  1.000000e+01
      vertex  5.099020e+00  3.353553e+00  9.853554e+00
      vertex  4.315248e+00  3.501767e+00  9.853554e+00
    endloop
  endfacet
  facet normal  4.925375e-01  7.844094e-01  3.769732e-01
    outer loop
      vertex  3.739281e+00  4.033333e+00  9.500000e+00
      vertex  3.639716e+00  3.925939e+00  9.853554e+00
      vertex  4.315248e+00  3.501767e+00  9.853554e+00
    endloop
  endfacet
  facet normal -1.878684e-01  3.452110e-01  9.195297e-01
    outer loop
      vertex -3.399346e+00  3.666667e+00  1.000000e+01
      vertex -1.233118e+00  4.845557e+00  1.000000e+01
      vertex -3.639716e+00  3.925939e+00  9.853554e+00
    endloop
  endfacet
  facet normal -1.878685e-01  3.452111e-01  9.195296e-01
    outer loop
      vertex -3.639716e+00  3.925939e+00  9.853554e+00
      vertex -1.233118e+00  4.845557e+00  1.000000e+01
      vertex -1.320313e+00  5.188189e+00  9.853554e+00
    endloop
  endfacet
  facet normal -4.436053e-01  8.151313e-01  3.725254e-01
    outer loop
      vertex -3.639716e+00  3.925939e+00  9.853554e+00
      vertex -1.320313e+00  5.188189e+00  9.853554e+00
      vertex -3.739281e+00  4.033333e+00  9.500000e+00
    endloop
  endfacet
  facet normal -4.436053e-01  8.151312e-01  3.725258e-01
    outer loop
      vertex -3.739281e+00  4.033333e+00  9.500000e+00
      vertex -1.320313e+00  5.188189e+00  9.853554e+00
      vertex -1.356430e+00  5.330112e+00  9.500000e+00
    endloop
  endfacet
  facet normal  1.878686e-01  3.452112e-01  9.195296e-01
    outer loop
      vertex  1.233118e+00  4.845557e+00  1.000000e+01
      vertex  3.399346e+00  3.666667e+00  1.000000e+01
      vertex  1.320313e+00  5.188189e+00  9.853554e+00
    endloop
  endfacet
  facet normal  1.878685e-01  3.452112e-01  9.195296e-01
    outer loop
      vertex  1.320313e+00  5.188189e+00  9.853554e+00
      vertex  3.399346e+00  3.666667e+00  1.000000e+01
      vertex  3.639716e+00  3.925939e+00  9.853554e+00
    endloop
  endfacet
  facet normal  4.436052e-01  8.151311e-01  3.725260e-01
    outer loop
      vertex  1.320313e+00  5.188189e+00  9.853554e+00
      vertex  3.639716e+00  3.925939e+00  9.853554e+00
      vertex  1.356430e+00  5.330112e+00  9.500000e+00
    endloop
  endfacet
  facet normal  4.436054e-01  8.151314e-01  3.725254e-01
    outer loop
      vertex  1.356430e+00  5.330112e+00  9.500000e+00
      vertex  3.639716e+00  3.925939e+00  9.853554e+00
      vertex  3.739281e+00  4.033333e+00  9.500000e+00
    endloop
  endfacet
  facet normal  0.000000e+00  3.930208e-01  9.195296e-01
    outer loop
      vertex -1.233118e+00  4.845557e+00  1.000000e+01
      vertex  1.233118e+00  4.845557e+00  1.000000e+01
      vertex -1.320313e+00  5.188189e+00  9.853554e+00
    endloop
  endfacet
  facet normal  -0.000000e+00  3.930208e-01  9.195296e-01
    outer loop
      vertex -1.320313e+00  5.188189e+00  9.853554e+00
      vertex  1.233118e+00  4.845557e+00  1.000000e+01
      vertex  1.320313e+00  5.188189e+00  9.853554e+00
    endloop
  endfacet
  facet normal  0.000000e+00  9.280217e-01  3.725261e-01
    outer loop
      vertex -1.320313e+00  5.188189e+00  9.853554e+00
      vertex  1.320313e+00  5.188189e+00  9.853554e+00
      vertex -1.356430e+00  5.330112e+00  9.500000e+00
    endloop
  endfacet
  facet normal  -0.000000e+00  9.280217e-01  3.725261e-01
    outer loop
      vertex -1.356430e+00  5.330112e+00  9.500000e+00
      vertex  1.320313e+00  5.188189e+00  9.853554e+00
      vertex  1.356430e+00  5.330112e+00  9.500000e+00
    endloop
  endfacet
  facet normal -7.217773e-02  3.816845e-01  9.214702e-01
    outer loop
      vertex -5.099020e+00  3.000000e+00  1.000000e+01
      vertex -4.315248e+00  3.501767e+00  9.853554e+00
      vertex -5.099020e+00  3.353553e+00  9.853554e+00
    endloop
  endfacet
  facet normal -2.297335e-01  5.857077e-01  7.772831e-01
    outer loop
      vertex -5.099020e+00  3.000000e+00  1.000000e+01
      vertex -3.399346e+00  3.666667e+00  1.000000e+01
      vertex -4.315248e+00  3.501767e+00  9.853554e+00
    endloop
  endfacet
  facet normal -4.925375e-01  7.844094e-01  3.769732e-01
    outer loop
      vertex -3.739281e+00  4.033333e+00  9.500000e+00
      vertex -4.315248e+00  3.501767e+00  9.853554e+00
      vertex -3.639716e+00  3.925939e+00  9.853554e+00
    endloop
  endfacet
  facet normal -2.844626e-01  7.252401e-01  6.269830e-01
    outer loop
      vertex -3.739281e+00  4.033333e+00  9.500000e+00
      vertex -5.099020e+00  3.500000e+00  9.500000e+00
      vertex -4.315248e+00  3.501767e+00  9.853554e+00
    endloop
  endfacet
  facet normal -2.065653e-01  3.289734e-01  9.214702e-01
    outer loop
      vertex -3.399346e+00  3.666667e+00  1.000000e+01
      vertex -3.639716e+00  3.925939e+00  9.853554e+00
      vertex -4.315248e+00  3.501767e+00  9.853554e+00
    endloop
  endfacet
  facet normal -1.721017e-01  9.100946e-01  3.769734e-01
    outer loop
      vertex -5.099020e+00  3.500000e+00  9.500000e+00
      vertex -5.099020e+00  3.353553e+00  9.853554e+00
      vertex -4.315248e+00  3.501767e+00  9.853554e+00
    endloop
  endfacet
  facet normal  2.964296e-01 -2.625607e-01  9.182545e-01
    outer loop
      vertex -2.710524e+00  1.285714e+00  1.000000e+01
      vertex -2.895016e+00  1.077423e+00  1.000000e+01
      vertex -2.391085e+00  1.134191e+00  9.853554e+00
    endloop
  endfacet
  facet normal  2.964296e-01 -2.625606e-01  9.182546e-01
    outer loop
      vertex -2.391085e+00  1.134191e+00  9.853554e+00
      vertex -2.895016e+00  1.077423e+00  1.000000e+01
      vertex -2.706034e+00  7.786157e-01  9.853554e+00
    endloop
  endfacet
  facet normal  6.955499e-01 -6.160787e-01  3.696721e-01
    outer loop
      vertex -2.391085e+00  1.134191e+00  9.853554e+00
      vertex -2.706034e+00  7.786157e-01  9.853554e+00
      vertex -2.258770e+00  1.071429e+00  9.500000e+00
    endloop
  endfacet
  facet normal  6.955498e-01 -6.160787e-01  3.696722e-01
    outer loop
      vertex -2.258770e+00  1.071429e+00  9.500000e+00
      vertex -2.706034e+00  7.786157e-01  9.853554e+00
      vertex -2.627755e+00  6.548458e-01  9.500000e+00
    endloop
  endfacet
  facet normal  1.101842e-01 -3.803525e-01  9.182546e-01
    outer loop
      vertex -2.895016e+00  1.077423e+00  1.000000e+01
      vertex -3.162278e+00  1.000000e+00  1.000000e+01
      vertex -2.706034e+00  7.786157e-01  9.853554e+00
    endloop
  endfacet
  facet normal  1.101843e-01 -3.803525e-01  9.182546e-01
    outer loop
      vertex -2.706034e+00  7.786157e-01  9.853554e+00
      vertex -3.162278e+00  1.000000e+00  1.000000e+01
      vertex -3.162278e+00  6.464466e-01  9.853554e+00
    endloop
  endfacet
  facet normal  2.585391e-01 -8.924685e-01  3.696721e-01
    outer loop
      vertex -2.706034e+00  7.786157e-01  9.853554e+00
      vertex -3.162278e+00  6.464466e-01  9.853554e+00
      vertex -2.627755e+00  6.548458e-01  9.500000e+00
    endloop
  endfacet
  facet normal  2.585391e-01 -8.924686e-01  3.696721e-01
    outer loop
      vertex -2.627755e+00  6.548458e-01  9.500000e+00
      vertex -3.162278e+00  6.464466e-01  9.853554e+00
      vertex -3.162278e+00  5.000000e-01  9.500000e+00
    endloop
  endfacet
  facet normal  6.955500e-01 -6.160785e-01  3.696722e-01
    outer loop
      vertex -2.258770e+00  1.071429e+00  9.500000e+00
      vertex -1.414585e+00  2.236656e+00  9.853554e+00
      vertex -2.391085e+00  1.134191e+00  9.853554e+00
    endloop
  endfacet
  facet normal  5.395679e-01 -5.769572e-01  6.131777e-01
    outer loop
      vertex -2.258770e+00  1.071429e+00  9.500000e+00
      vertex -9.179182e-01  2.325387e+00  9.500000e+00
      vertex -1.414585e+00  2.236656e+00  9.853554e+00
    endloop
  endfacet
  facet normal -5.395679e-01 -5.769572e-01  6.131777e-01
    outer loop
      vertex  2.258770e+00  1.071429e+00  9.500000e+00
      vertex  1.414585e+00  2.236656e+00  9.853554e+00
      vertex  9.179182e-01  2.325387e+00  9.500000e+00
    endloop
  endfacet
  facet normal -6.955500e-01 -6.160785e-01  3.696721e-01
    outer loop
      vertex  2.258770e+00  1.071429e+00  9.500000e+00
      vertex  2.391085e+00  1.134191e+00  9.853554e+00
      vertex  1.414585e+00  2.236656e+00  9.853554e+00
    endloop
  endfacet
  facet normal  0.000000e+00 -7.403079e-01  6.722679e-01
    outer loop
      vertex  6.661338e-16  2.646447e+00  9.853554e+00
      vertex -9.179182e-01  2.325387e+00  9.500000e+00
      vertex  9.179182e-01  2.325387e+00  9.500000e+00
    endloop
  endfacet
  facet normal -2.751784e-01 -9.499069e-01  1.481680e-01
    outer loop
      vertex  6.661338e-16  2.646447e+00  9.853554e+00
      vertex  9.179182e-01  2.325387e+00  9.500000e+00
      vertex  1.414585e+00  2.236656e+00  9.853554e+00
    endloop
  endfacet
  facet normal  2.751784e-01 -9.499069e-01  1.481680e-01
    outer loop
      vertex -1.414585e+00  2.236656e+00  9.853554e+00
      vertex -9.179182e-01  2.325387e+00  9.500000e+00
      vertex  6.661338e-16  2.646447e+00  9.853554e+00
    endloop
  endfacet
  facet normal -2.964297e-01 -2.625606e-01  9.182546e-01
    outer loop
      vertex  2.391085e+00  1.134191e+00  9.853554e+00
      vertex  2.710524e+00  1.285714e+00  1.000000e+01
      vertex  1.414585e+00  2.236656e+00  9.853554e+00
    endloop
  endfacet
  facet normal -2.964297e-01 -2.625605e-01  9.182546e-01
    outer loop
      vertex  1.414585e+00  2.236656e+00  9.853554e+00
      vertex  2.710524e+00  1.285714e+00  1.000000e+01
      vertex  1.603567e+00  2.535463e+00  1.000000e+01
    endloop
  endfacet
  facet normal -1.101843e-01 -3.803525e-01  9.182545e-01
    outer loop
      vertex  1.414585e+00  2.236656e+00  9.853554e+00
      vertex  1.603567e+00  2.535463e+00  1.000000e+01
      vertex  6.661338e-16  2.646447e+00  9.853554e+00
    endloop
  endfacet
  facet normal -1.101843e-01 -3.803526e-01  9.182545e-01
    outer loop
      vertex  6.661338e-16  2.646447e+00  9.853554e+00
      vertex  1.603567e+00  2.535463e+00  1.000000e+01
      vertex -1.421584e-15  3.000000e+00  1.000000e+01
    endloop
  endfacet
  facet normal  1.101843e-01 -3.803526e-01  9.182544e-01
    outer loop
      vertex  6.661338e-16  2.646447e+00  9.853554e+00
      vertex -1.421584e-15  3.000000e+00  1.000000e+01
      vertex -1.414585e+00  2.236656e+00  9.853554e+00
    endloop
  endfacet
  facet normal  1.101843e-01 -3.803525e-01  9.182546e-01
    outer loop
      vertex -1.414585e+00  2.236656e+00  9.853554e+00
      vertex -1.421584e-15  3.000000e+00  1.000000e+01
      vertex -1.603567e+00  2.535463e+00  1.000000e+01
    endloop
  endfacet
  facet normal  2.964297e-01 -2.625606e-01  9.182546e-01
    outer loop
      vertex -1.414585e+00  2.236656e+00  9.853554e+00
      vertex -1.603567e+00  2.535463e+00  1.000000e+01
      vertex -2.391085e+00  1.134191e+00  9.853554e+00
    endloop
  endfacet
  facet normal  2.964297e-01 -2.625606e-01  9.182545e-01
    outer loop
      vertex -2.391085e+00  1.134191e+00  9.853554e+00
      vertex -1.603567e+00  2.535463e+00  1.000000e+01
      vertex -2.710524e+00  1.285714e+00  1.000000e+01
    endloop
  endfacet
  facet normal -1.101842e-01 -3.803525e-01  9.182546e-01
    outer loop
      vertex  3.162278e+00  1.000000e+00  1.000000e+01
      vertex  2.895016e+00  1.077423e+00  1.000000e+01
      vertex  3.162278e+00  6.464466e-01  9.853554e+00
    endloop
  endfacet
  facet normal -1.101843e-01 -3.803525e-01  9.182546e-01
    outer loop
      vertex  3.162278e+00  6.464466e-01  9.853554e+00
      vertex  2.895016e+00  1.077423e+00  1.000000e+01
      vertex  2.706034e+00  7.786157e-01  9.853554e+00
    endloop
  endfacet
  facet normal -2.585391e-01 -8.924685e-01  3.696721e-01
    outer loop
      vertex  3.162278e+00  6.464466e-01  9.853554e+00
      vertex  2.706034e+00  7.786157e-01  9.853554e+00
      vertex  3.162278e+00  5.000000e-01  9.500000e+00
    endloop
  endfacet
  facet normal -2.585391e-01 -8.924686e-01  3.696721e-01
    outer loop
      vertex  3.162278e+00  5.000000e-01  9.500000e+00
      vertex  2.706034e+00  7.786157e-01  9.853554e+00
      vertex  2.627755e+00  6.548458e-01  9.500000e+00
    endloop
  endfacet
  facet normal -2.964295e-01 -2.625606e-01  9.182546e-01
    outer loop
      vertex  2.895016e+00  1.077423e+00  1.000000e+01
      vertex  2.710524e+00  1.285714e+00  1.000000e+01
      vertex  2.706034e+00  7.786157e-01  9.853554e+00
    endloop
  endfacet
  facet normal -2.964297e-01 -2.625606e-01  9.182546e-01
    outer loop
      vertex  2.706034e+00  7.786157e-01  9.853554e+00
      vertex  2.710524e+00  1.285714e+00  1.000000e+01
      vertex  2.391085e+00  1.134191e+00  9.853554e+00
    endloop
  endfacet
  facet normal -6.955499e-01 -6.160787e-01  3.696721e-01
    outer loop
      vertex  2.706034e+00  7.786157e-01  9.853554e+00
      vertex  2.391085e+00  1.134191e+00  9.853554e+00
      vertex  2.627755e+00  6.548458e-01  9.500000e+00
    endloop
  endfacet
  facet normal -6.955498e-01 -6.160787e-01  3.696721e-01
    outer loop
      vertex  2.627755e+00  6.548458e-01  9.500000e+00
      vertex  2.391085e+00  1.134191e+00  9.853554e+00
      vertex  2.258770e+00  1.071429e+00  9.500000e+00
    endloop
  endfacet
  facet normal -3.826833e-01  -0.000000e+00 -9.238795e-01
    outer loop
      vertex -8.477225e+00  5.000000e-01  6.450000e+00
      vertex -7.451921e+00  3.500000e+00  6.025305e+00
      vertex -7.451921e+00  5.000000e-01  6.025305e+00
    endloop
  endfacet
  facet normal -9.238795e-01  0.000000e+00 -3.826833e-01
    outer loop
      vertex -7.451921e+00  5.000000e-01  6.025305e+00
      vertex -7.451921e+00  3.500000e+00  6.025305e+00
      vertex -7.027225e+00  3.500000e+00  5.000000e+00
    endloop
  endfacet
  facet normal -9.238795e-01  -0.000000e+00 -3.826833e-01
    outer loop
      vertex -7.451921e+00  5.000000e-01  6.025305e+00
      vertex -7.027225e+00  3.500000e+00  5.000000e+00
      vertex -7.027225e+00  5.000000e-01  5.000000e+00
    endloop
  endfacet
  facet normal -3.826833e-01  0.000000e+00 -9.238795e-01
    outer loop
      vertex -7.451921e+00  3.500000e+00  6.025305e+00
      vertex -8.477225e+00  5.000000e-01  6.450000e+00
      vertex -8.477225e+00  3.500000e+00  6.450000e+00
    endloop
  endfacet
  facet normal  3.826833e-01  0.000000e+00 -9.238795e-01
    outer loop
      vertex -8.477225e+00  3.500000e+00  6.450000e+00
      vertex -8.477225e+00  5.000000e-01  6.450000e+00
      vertex -9.502530e+00  5.000000e-01  6.025305e+00
    endloop
  endfacet
  facet normal  3.826833e-01  0.000000e+00 -9.238795e-01
    outer loop
      vertex -8.477225e+00  3.500000e+00  6.450000e+00
      vertex -9.502530e+00  5.000000e-01  6.025305e+00
      vertex -9.502530e+00  3.500000e+00  6.025305e+00
    endloop
  endfacet
  facet normal  9.238795e-01  0.000000e+00 -3.826833e-01
    outer loop
      vertex -9.502530e+00  3.500000e+00  6.025305e+00
      vertex -9.502530e+00  5.000000e-01  6.025305e+00
      vertex -9.927225e+00  5.000000e-01  5.000000e+00
    endloop
  endfacet
  facet normal  9.238795e-01  0.000000e+00 -3.826833e-01
    outer loop
      vertex -9.502530e+00  3.500000e+00  6.025305e+00
      vertex -9.927225e+00  5.000000e-01  5.000000e+00
      vertex -9.927225e+00  3.500000e+00  5.000000e+00
    endloop
  endfacet
  facet normal  3.826835e-01  0.000000e+00  9.238795e-01
    outer loop
      vertex -8.477225e+00  5.000000e-01  3.550000e+00
      vertex -9.502530e+00  3.500000e+00  3.974695e+00
      vertex -9.502530e+00  5.000000e-01  3.974695e+00
    endloop
  endfacet
  facet normal  9.238795e-01  -0.000000e+00  3.826833e-01
    outer loop
      vertex -9.502530e+00  5.000000e-01  3.974695e+00
      vertex -9.502530e+00  3.500000e+00  3.974695e+00
      vertex -9.927225e+00  3.500000e+00  5.000000e+00
    endloop
  endfacet
  facet normal  9.238795e-01  0.000000e+00  3.826833e-01
    outer loop
      vertex -9.502530e+00  5.000000e-01  3.974695e+00
      vertex -9.927225e+00  3.500000e+00  5.000000e+00
      vertex -9.927225e+00  5.000000e-01  5.000000e+00
    endloop
  endfacet
  facet normal  3.826835e-01  -0.000000e+00  9.238795e-01
    outer loop
      vertex -9.502530e+00  3.500000e+00  3.974695e+00
      vertex -8.477225e+00  5.000000e-01  3.550000e+00
      vertex -8.477225e+00  3.500000e+00  3.550000e+00
    endloop
  endfacet
  facet normal -3.826835e-01  0.000000e+00  9.238795e-01
    outer loop
      vertex -8.477225e+00  3.500000e+00  3.550000e+00
      vertex -8.477225e+00  5.000000e-01  3.550000e+00
      vertex -7.451921e+00  5.000000e-01  3.974695e+00
    endloop
  endfacet
  facet normal -3.826835e-01  0.000000e+00  9.238795e-01
    outer loop
      vertex -8.477225e+00  3.500000e+00  3.550000e+00
      vertex -7.451921e+00  5.000000e-01  3.974695e+00
      vertex -7.451921e+00  3.500000e+00  3.974695e+00
    endloop
  endfacet
  facet normal -9.238795e-01  0.000000e+00  3.826833e-01
    outer loop
      vertex -7.451921e+00  3.500000e+00  3.974695e+00
      vertex -7.451921e+00  5.000000e-01  3.974695e+00
      vertex -7.027225e+00  5.000000e-01  5.000000e+00
    endloop
  endfacet
  facet normal -9.238795e-01  0.000000e+00  3.826833e-01
    outer loop
      vertex -7.451921e+00  3.500000e+00  3.974695e+00
      vertex -7.027225e+00  5.000000e-01  5.000000e+00
      vertex -7.027225e+00  3.500000e+00  5.000000e+00
    endloop
  endfacet
  facet normal  3.826833e-01  0.000000e+00 -9.238795e-01
    outer loop
      vertex  8.477225e+00  3.500000e+00  6.450000e+00
      vertex  7.451921e+00  5.000000e-01  6.025305e+00
      vertex  7.451921e+00  3.500000e+00  6.025305e+00
    endloop
  endfacet
  facet normal  9.238795e-01  0.000000e+00 -3.826833e-01
    outer loop
      vertex  7.451921e+00  3.500000e+00  6.025305e+00
      vertex  7.451921e+00  5.000000e-01  6.025305e+00
      vertex  7.027225e+00  5.000000e-01  5.000000e+00
    endloop
  endfacet
  facet normal  9.238795e-01  0.000000e+00 -3.826833e-01
    outer loop
      vertex  7.451921e+00  3.500000e+00  6.025305e+00
      vertex  7.027225e+00  5.000000e-01  5.000000e+00
      vertex  7.027225e+00  3.500000e+00  5.000000e+00
    endloop
  endfacet
  facet normal  3.826833e-01  0.000000e+00 -9.238795e-01
    outer loop
      vertex  7.451921e+00  5.000000e-01  6.025305e+00
      vertex  8.477225e+00  3.500000e+00  6.450000e+00
      vertex  8.477225e+00  5.000000e-01  6.450000e+00
    endloop
  endfacet
  facet normal -3.826833e-01  0.000000e+00 -9.238795e-01
    outer loop
      vertex  8.477225e+00  5.000000e-01  6.450000e+00
      vertex  8.477225e+00  3.500000e+00  6.450000e+00
      vertex  9.502530e+00  3.500000e+00  6.025305e+00
    endloop
  endfacet
  facet normal -3.826833e-01  -0.000000e+00 -9.238795e-01
    outer loop
      vertex  8.477225e+00  5.000000e-01  6.450000e+00
      vertex  9.502530e+00  3.500000e+00  6.025305e+00
      vertex  9.502530e+00  5.000000e-01  6.025305e+00
    endloop
  endfacet
  facet normal -9.238795e-01  0.000000e+00 -3.826833e-01
    outer loop
      vertex  9.502530e+00  5.000000e-01  6.025305e+00
      vertex  9.502530e+00  3.500000e+00  6.025305e+00
      vertex  9.927225e+00  3.500000e+00  5.000000e+00
    endloop
  endfacet
  facet normal -9.238795e-01  -0.000000e+00 -3.826833e-01
    outer loop
      vertex  9.502530e+00  5.000000e-01  6.025305e+00
      vertex  9.927225e+00  3.500000e+00  5.000000e+00
      vertex  9.927225e+00  5.000000e-01  5.000000e+00
    endloop
  endfacet
  facet normal -3.826835e-01  0.000000e+00  9.238795e-01
    outer loop
      vertex  8.477225e+00  3.500000e+00  3.550000e+00
      vertex  9.502530e+00  5.000000e-01  3.974695e+00
      vertex  9.502530e+00  3.500000e+00  3.974695e+00
    endloop
  endfacet
  facet normal -9.238795e-01  0.000000e+00  3.826833e-01
    outer loop
      vertex  9.502530e+00  3.500000e+00  3.974695e+00
      vertex  9.502530e+00  5.000000e-01  3.974695e+00
      vertex  9.927225e+00  5.000000e-01  5.000000e+00
    endloop
  endfacet
  facet normal -9.238795e-01  0.000000e+00  3.826833e-01
    outer loop
      vertex  9.502530e+00  3.500000e+00  3.974695e+00
      vertex  9.927225e+00  5.000000e-01  5.000000e+00
      vertex  9.927225e+00  3.500000e+00  5.000000e+00
    endloop
  endfacet
  facet normal -3.826835e-01  0.000000e+00  9.238795e-01
    outer loop
      vertex  9.502530e+00  5.000000e-01  3.974695e+00
      vertex  8.477225e+00  3.500000e+00  3.550000e+00
      vertex  8.477225e+00  5.000000e-01  3.550000e+00
    endloop
  endfacet
  facet normal  3.826835e-01  -0.000000e+00  9.238795e-01
    outer loop
      vertex  8.477225e+00  5.000000e-01  3.550000e+00
      vertex  8.477225e+00  3.500000e+00  3.550000e+00
      vertex  7.451921e+00  3.500000e+00  3.974695e+00
    endloop
  endfacet
  facet normal  3.826835e-01  0.000000e+00  9.238795e-01
    outer loop
      vertex  8.477225e+00  5.000000e-01  3.550000e+00
      vertex  7.451921e+00  3.500000e+00  3.974695e+00
      vertex  7.451921e+00  5.000000e-01  3.974695e+00
    endloop
  endfacet
  facet normal  9.238795e-01  -0.000000e+00  3.826833e-01
    outer loop
      vertex  7.451921e+00  5.000000e-01  3.974695e+00
      vertex  7.451921e+00  3.500000e+00  3.974695e+00
      vertex  7.027225e+00  3.500000e+00  5.000000e+00
    endloop
  endfacet
  facet normal  9.238795e-01  0.000000e+00  3.826833e-01
    outer loop
      vertex  7.451921e+00  5.000000e-01  3.974695e+00
      vertex  7.027225e+00  3.500000e+00  5.000000e+00
      vertex  7.027225e+00  5.000000e-01  5.000000e+00
    endloop
  endfacet
endsolid CATIA STL
